<?xml version="1.0" encoding="utf-8"?>
<!-- Generator: Adobe Illustrator 26.0.1, SVG Export Plug-In . SVG Version: 6.00 Build 0)  -->
<svg version="1.1" id="Layer_1" xmlns="http://www.w3.org/2000/svg" xmlns:xlink="http://www.w3.org/1999/xlink" x="0px" y="0px"
	 viewBox="0 0 5000 5000" style="enable-background:new 0 0 5000 5000;" xml:space="preserve">
<style type="text/css">
	.st0{fill:#5004A0;}
</style>
<g transform="translate(0.000000,5000.000000) scale(0.100000,-0.100000)">
	<path class="st0" d="M24364,45359.6c-40.7-2.1-183.3-8.6-316.3-15c-3407.1-163-6664.1-1177.1-9546.9-2974
		c-2379-1482.7-4409.5-3440.3-5983.3-5768.9c-1897.6-2808.9-3032.9-6026.2-3322.4-9412.9c-54.7-651.8-74-1190-66.5-1913.7
		c6.4-574.6,12.9-753.7,45-1211.5c171.5-2401.5,784.8-4782.6,1788.2-6937.5c1381.9-2968.6,3477.9-5557.7,6089.5-7523.9
		c3071.5-2311.4,6724.1-3677.3,10540.8-3941c465.3-32.2,641.1-38.6,1190-45c704.4-7.5,1272.6,11.8,1919,67.5
		c4009.6,339.9,7769.4,1868.6,10902.1,4430.9c1922.3,1571.7,3565.8,3539,4779.4,5720.7c1409.8,2533.3,2242.8,5337.9,2446.5,8233.6
		c37.5,529.6,44,732.2,44,1420.5c0,689.4-7.5,919.9-44,1425.9c-215.5,3005.1-1087.1,5863.2-2580.5,8464.1
		c-681.8,1188.9-1537.4,2371.5-2447.6,3383.5c-977.7,1087.1-2079.9,2073.4-3255.9,2911.8
		c-2325.4,1657.4-4905.9,2770.3-7699.7,3320.3c-918.8,181.2-1793.6,288.4-2841,350.6C25822,45356.3,24524.8,45367.1,24364,45359.6z
		 M25612.9,44465.4c2582.7-92.2,5054.9-674.3,7337.4-1731.4c4244.4-1963,7631.1-5434.4,9483.7-9718.5
		c1257.6-2907.5,1762.5-6079.8,1473.1-9257.5c-152.2-1677.8-528.5-3341.7-1108.5-4895.1c-376.3-1007.8-901.6-2106.7-1444.1-3022.2
		c-1719.6-2898.9-4169.3-5290.8-7095.1-6927.8c-2441.1-1365.8-5132.1-2166.7-7928.1-2361.8c-489.9-33.2-744-41.8-1329.4-41.8
		c-585.4,0-839.4,8.6-1329.4,41.8C20825,6749.4,18091.2,7576,15610.4,8987.9c-2946.1,1676.7-5438.7,4170.4-7113.3,7114.4
		c-1851.5,3257-2693.1,6962.1-2433.6,10716.6c266.9,3848.8,1695,7506.8,4106.1,10518.2c1946.9,2431.5,4433.1,4334.4,7274.1,5570.6
		c1425.9,620.7,3002.9,1082.8,4524.2,1326.2C23156.8,44424.7,24452.9,44506.2,25612.9,44465.4z"/>
	<path class="st0" d="M19459.2,42942c-493.2-635.7-498.5-642.2-511.4-613.2c-52.5,119-61.1,132.9-83.6,138.3
		c-49.3,11.8-66.5-3.2-75-64.3c-7.5-66.5-3.2-100.8,34.3-244.4l27.9-104l-51.5-81.5c-63.3-102.9-204.8-256.2-510.3-557.5
		c-359.2-353.8-632.5-591.8-979.9-852.3c-1111.8-833-2266.4-1295.1-3368.5-1346.5l-151.2-7.5l-63.3,35.4
		c-34.3,19.3-114.7,75-179,124.4s-123.3,90.1-130.8,90.1c-8.6,0-24.7-9.6-36.5-21.4c-25.7-25.7-22.5-49.3,17.2-138.3
		c15-32.2,22.5-61.1,18.2-65.4c-5.4-4.3-122.2-27.9-260.5-53.6c-513.5-93.3-1320.8-245.5-1323-248.7
		c-3.2-4.3-214.4-1320.8-239.1-1488.1c-9.6-67.5-19.3-125.4-20.4-126.5c-1.1-2.1-47.2,18.2-100.8,45
		c-54.7,26.8-105.1,49.3-113.6,49.3c-20.4,0-18.2-32.2,6.4-98.6c20.4-55.8,41.8-84.7,157.6-220.9c48.2-57.9,55.7-72.9,62.2-127.6
		c4.3-34.3,25.7-185.5,48.2-335.6c59-387,65.4-458.9,65.4-723.7c0-413.8-52.5-727.9-176.9-1049.6
		c-137.2-353.8-325.9-636.8-608.9-912.3c-179-175.8-354.9-306.6-566.1-421.3l-80.4-44l-101.8,25.7c-132.9,34.3-187.6,35.4-208,3.2
		c-17.2-28.9-42.9-119-183.3-651.8c-56.8-215.5-249.8-943.4-428.8-1618.9c-179-675.4-420.3-1586.7-536-2026.2
		c-115.8-439.6-212.3-806.2-215.5-815.9c-8.6-28.9,248.7-109.4,842.7-261.6c197.3-50.4,419.2-109.4,493.2-130.8
		c174.8-51.5,181.2-57.9,219.8-226.2c38.6-167.2,117.9-405.2,190.8-573.6c358.1-824.4,1077.4-1541.7,1930.8-1923.3
		c158.7-70.8,179-72.9,198.3-21.4c4.3,12.9,13.9,160.8,21.4,329.1c12.9,306.6,27.9,578.9,42.9,730.1l7.5,81.5l-129.7,86.8
		c-70.8,47.2-181.2,128.7-246.6,180.1c-152.2,121.1-414.9,383.8-535,535c-367.7,462.1-613.2,1014.2-676.5,1522.4
		c-19.3,157.6-44,284.1-56.8,297c-15,15-120.1,48.2-276.6,90.1c-82.5,20.4-150.1,39.7-152.2,40.7c-9.6,9.6,147.9,658.3,166.2,680.8
		c8.6,10.7,21.4-23.6,107.2-274.5c112.6-331.3,143.7-406.3,262.7-617.5c300.2-537.1,658.3-933.8,1163.2-1291.9
		c115.8-81.5,336.6-216.6,438.5-268l65.4-33.2l12.9,77.2c25.7,150.1,151.2,765.5,186.5,916.6l36.5,153.3l-92.2,70.8
		c-601.4,465.3-1018.5,1039.9-1226.5,1691.8c-59,185.5-125.4,502.8-125.4,602.5c0,52.5,19.3,140.4,32.2,147.9
		c5.4,3.2,38.6-50.4,74-119c294.8-560.7,801.9-1064.6,1437.7-1429.1c72.9-41.8,136.2-72.9,140.4-68.6c4.3,5.4,41.8,119,83.6,254.1
		c143.7,455.6,346.3,999.2,541.4,1448.4c124.4,286.2,396.7,831.9,536,1077.4c62.2,108.3,113.6,200.5,113.6,203.7
		c0,3.2-628.2,171.5-1396.9,374.2c-767.6,202.6-1402.3,372-1409.8,376.3c-8.6,4.3,30,36.5,107.2,86.8
		c240.1,157.6,471.7,360.2,619.7,540.3c299.1,364.5,443.8,803,407.4,1226.5c-16.1,181.2-62.2,374.2-114.7,476
		c-15,30-13.9,32.2,36.5,91.1c27.9,33.2,220.8,229.4,427.8,436.3l376.3,375.2l468.5-455.6c268-260.5,486.7-481.4,509.2-515.7
		c22.5-33.2,203.7-440.6,416-937c208-483.5,471.7-1095.7,585.4-1361.6l209.1-482.4l-116.9-117.9c-64.3-65.4-116.9-122.2-116.9-127.6
		c0-21.4,79.3-137.2,125.4-183.3l50.4-49.3l141.5,141.5l140.4,140.4l7.5,117.9c8.6,132.9,20.4,213.3,119,828.7
		c38.6,242.3,99.7,622.9,135.1,845.9c35.4,224.1,66.5,409.5,68.6,411.7c2.1,3.2,238,48.2,522.1,99.7
		c285.2,52.5,725.8,134,978.8,181.2c261.6,48.2,508.2,89,570.4,92.2l109.4,7.5l89,82.6c49.3,46.1,110.4,110.4,136.2,143.7l47.2,60
		l-19.3,50.4c-21.4,54.7-81.5,126.5-131.9,156.5l-32.2,18.2l-111.5-117.9c-82.6-89-115.8-117.9-131.9-114.7
		c-39.7,7.5-2786.4,1112.8-2850.7,1147.1c-48.2,25.7-163,131.9-511.4,472.8c-247.7,241.2-448.1,442.8-447.1,448.1
		c4.3,9.6,889.8,919.8,896.3,919.8c2.1,0,45-12.9,94.3-27.9c87.9-27.9,96.5-27.9,297-22.5c144.7,3.2,242.3,11.8,329.1,28.9
		c856.6,159.7,1743.2,650.8,2690.9,1489.1c61.1,54.7,127.6,121.1,146.9,147.9c35.4,49.3,77.2,163,102.9,275.5
		c13.9,61.1,15,63.3,66.5,83.6c86.8,34.3,286.2,92.2,568.2,165.1c147.9,38.6,317.3,84.7,378.4,102.9c61.1,17.2,112.6,30,115.8,26.8
		c3.2-2.1,84.7-284.1,182.3-625c141.5-494.2,179-637.9,183.3-706.5c3.2-61.1-8.6-214.4-44-530.7c-26.8-244.4-72.9-676.5-102.9-959.5
		c-93.3-888.8-163-1500.9-170.5-1509.5c-4.3-4.3-75-25.7-157.6-48.2l-149-39.7l2.1-75c1.1-41.8,7.5-105.1,15-141.5
		c9.6-56.8,16.1-67.5,33.2-67.5c12.9,0,100.8,20.4,197.3,45l175.8,45l48.2,83.6c26.8,46.1,130.8,186.5,232.6,312
		c149,184.4,1000.3,1247.9,1044.2,1303.7c9.6,12.9,44,3.2,214.4-61.1c1413-530.7,1720.7-649.7,1793.6-691.5l83.6-47.2l143.7,35.4
		c79.3,19.3,164,42.9,188.7,52.5c40.7,16.1,45,21.4,55.7,70.8c22.5,100.8,12.9,159.7-32.2,201.6c-32.2,28.9-42.9,28.9-205.8-10.7
		c-76.1-18.2-141.5-28.9-146.9-24.7c-4.3,5.4-258.4,333.4-565,727.9c-306.6,395.6-735.5,947.7-953.1,1227.5
		c-243.4,314.1-405.2,530.7-420.3,565c-12.9,30-52.5,155.5-86.8,278.7c-186.5,656.1-271.2,959.5-267,962.7
		c3.2,3.2,1065.7,306.6,1245.8,355.9l75,20.4l76.1-91.1c245.5-293.8,588.6-541.4,971.3-702.2c611.1-255.2,1299.4-313.1,2071.3-172.6
		c249.8,46.1,716.2,172.6,914.5,248.7c16.1,5.4-107.2-426.7-159.7-560.7c-20.4-52.5-55.7-134-77.2-181.2
		c-59-126.5-93.3-224.1-166.2-472.8c-68.6-231.6-119-370.9-174.8-481.4c-50.4-100.8-95.4-226.2-189.8-524.2
		c-48.2-153.3-113.6-338.8-146.9-412.8c-32.2-74-82.6-197.3-110.4-274.5c-26.8-76.1-65.4-169.4-83.6-205.8l-34.3-67.5h-121.1h-122.2
		l-33.2-41.8c-18.2-22.5-36.5-53.6-39.7-68.6c-13.9-52.5,40.7-66.5,436.3-120.1c522.1-68.6,835.2-121.1,1377.6-231.6
		c560.7-112.6,885.5-203.7,1675.7-467.4c636.8-212.3,950.9-336.6,1506.3-593.9c246.6-113.6,918.8-448.1,1364.8-678.6l347.4-179
		l40.7,46.1c23.6,25.7,41.8,49.3,42.9,53.6c1.1,19.3-98.6,126.5-158.7,169.4l-67.5,48.2l5.4,182.3c6.4,201.6,35.4,447.1,79.3,675.4
		l30,150.1l62.2-117.9c184.4-350.6,389.2-572.5,649.7-706.5c163-83.6,374.2-140.4,566.1-153.3c60-3.2,109.4-9.6,109.4-12.9
		c0-4.3-234.8-153.3-522.1-332.3c-288.4-179-533.9-335.6-546.8-347.4c-22.5-19.3-67.5-102.9-67.5-124.4c0-5.4,63.3-53.6,139.4-108.3
		c260.5-185.5,596.1-480.3,975.6-857.7c593.9-591.8,1191.1-1437.7,1760.4-2498c111.5-208,470.6-929.5,587.5-1181.4
		c38.6-81.5,71.8-147.9,76.1-147.9c17.2,0,120.1,90.1,151.2,131.9c97.6,132.9,156.5,330.2,168.3,565
		c6.4,106.1,13.9,166.2,24.7,187.6c9.7,18.2,71.8,92.2,139.4,165.1c213.3,232.6,265.9,293.8,344.1,397.7
		c112.6,149,218.7,272.3,322.7,375.2c50.4,49.3,92.2,87.9,92.2,84.7c0-3.2-56.8-124.4-127.6-268
		c-399.9-822.3-628.2-1447.3-751.5-2057.3c-62.2-308.8-78.3-474.9-71.8-745.1c3.2-171.5,10.7-251.9,27.9-339.9
		c53.6-269.1,149-470.6,302.3-646.5c30-34.3,105.1-128.7,165.1-209.1c115.8-154.4,173.7-211.2,245.5-246.6
		c61.1-28.9,159.7-53.6,245.5-61.1l74-6.4l40.7-55.7c105.1-141.5,196.2-165.1,352.7-91.1c37.5,18.2,114.7,44,171.5,59
		c56.8,13.9,124.4,33.2,151.2,42.9c47.2,16.1,48.2,16.1,135.1-21.4c165.1-70.8,244.4-82.6,368.8-53.6
		c121.1,27.9,450.3,137.2,450.3,149c0,6.4-6.4,36.5-15,67.5l-15,54.7l50.4,6.4c96.5,12.9,425.6,38.6,484.6,38.6
		c47.2,0,66.5-5.4,96.5-27.9c80.4-60,140.4-83.6,213.3-83.6c79.3,0,107.2,11.8,195.1,83.6l59,48.2h95.4
		c124.4,0,197.3,24.7,275.5,96.5c27.9,25.7,38.6,27.9,128.7,27.9c87.9,0,106.1,4.3,168.3,33.2c38.6,18.2,87.9,48.2,108.3,65.4
		c35.4,32.2,39.7,33.2,143.7,32.2c121.1,0,170.5,15,228.4,70.8c71.8,68.6,97.6,154.4,77.2,264.8
		c-23.6,130.8-543.6,1766.8-587.5,1847.2c-50.4,93.3-129.7,135.1-256.2,136.2c-87.9,0-168.3-24.7-233.7-72.9l-39.7-31.1l-71.8,26.8
		c-46.1,17.2-94.3,26.8-137.2,26.8c-69.7,1.1-105.1-16.1-198.3-93.3c-37.5-32.2-44-33.2-139.4-34.3c-120.1-1.1-196.2-26.8-268-90.1
		c-47.2-40.7-48.2-40.7-113.6-35.4c-98.6,9.6-191.9-19.3-277.7-84.7l-68.6-51.5h-107.2c-66.5,0-120.1-5.4-142.6-15
		c-55.7-23.6-109.4-77.2-135.1-136.2c-20.4-48.2-22.5-70.8-19.3-170.5l3.2-114.7l-38.6-22.5l-38.6-22.5l-24.7,80.4
		c-13.9,44-28.9,82.6-32.2,84.7c-9.6,6.4-349.5-99.7-435.3-135.1c-151.2-63.3-197.3-105.1-292.7-262.7
		c-33.2-55.7-57.9-85.8-76.1-91.1c-15-4.3-125.4-38.6-246.6-75c-121.1-36.5-233.7-76.1-250.9-87.9c-42.9-30-70.8-99.7-78.3-199.4
		l-6.4-84.7l-62.2-54.7c-75-66.5-146.9-164-193-262.7c-38.6-82.6-31.1-86.8-105.1,57.9c-62.2,122.2-109.4,267-136.2,412.8
		c-26.8,146.9-26.8,495.3-1.1,675.4c78.3,541.4,262.7,1133.2,571.4,1833.3c167.2,379.5,568.2,1153.6,692.6,1338
		c62.2,93.3,135.1,161.9,354.9,338.8c212.3,170.5,408.5,344.1,425.6,376.3c28.9,53.6,431,376.3,448.1,360.2
		c2.1-3.2-3.2-81.5-13.9-174.8c-25.7-228.4-18.2-602.5,15-754.7c52.5-243.4,79.3-289.5,202.6-355.9l56.8-31.1l70.8,62.2
		c91.1,80.4,120.1,127.6,168.3,271.2c97.6,292.7,124.4,621.8,81.5,966c-13.9,108.3-6.4,175.8,24.7,228.4
		c33.2,53.6,140.4,137.2,320.6,245.5c365.6,220.8,583.2,409.5,694.7,598.2c36.5,61.1,85.8,182.3,85.8,209.1
		c0,21.4-93.3,108.3-138.3,129.7c-81.5,38.6-287.3-4.3-476-98.6c-209.1-105.1-511.4-324.8-625-454.6
		c-89-102.9-111.5-116.9-194-125.4c-77.2-8.6-136.2,8.6-303.4,89c-259.4,123.3-585.4,197.3-864.1,197.3
		c-186.5,0-248.7-12.9-290.5-57.9c-78.3-84.7-74-226.2,9.6-307.7c106.1-102.9,366.7-244.4,576.8-314.1
		c110.4-36.5,308.8-83.6,410.6-97.6c28.9-3.2,50.4-10.7,48.2-16.1c-5.4-16.1-138.3-117.9-255.2-196.2
		c-62.2-40.7-151.2-105.1-198.3-141.5c-110.4-85.8-246.6-175.8-407.4-270.2c-157.6-93.3-258.4-166.2-487.8-357
		c-188.7-156.5-328.1-260.5-473.9-350.6c-115.8-71.8-248.7-183.3-485.7-410.6c-153.3-146.9-399.9-351.6-551.1-456.7
		c-12.9-9.6-36.5-9.6-97.6,2.1c-96.5,17.2-239.1,19.3-327,4.3c-35.4-6.4-74-12.9-84.7-13.9c-16.1-2.1-32.2,20.4-74,100.8
		c-49.3,95.4-52.5,106.1-41.8,138.3c18.2,49.3,369.9,387,774,740.8c245.5,214.4,375.2,325.9,383.8,329.1c4.3,1.1,20.4-19.3,36.5-45
		c24.7-41.8,33.2-47.2,78.3-54.7c41.8-5.4,55.8-3.2,76.1,12.9c290.5,235.9,362.4,295.9,416,346.3c74,69.7,82.6,84.7,161.9,300.2
		c33.2,91.1,101.8,268,151.2,393.5c163,414.9,173.7,464.2,155.5,711.9c-7.5,91.1-24.7,283-38.6,427.8
		c-37.5,379.5-56.8,605.7-65.4,785.8l-7.5,158.7l-37.5,31.1c-54.7,45-146.9,92.2-323.8,166.2c-480.3,199.4-835.2,354.9-833,364.5
		c2.1,6.4,82.6,63.3,179,127.6c184.4,123.3,318.4,240.1,306.6,269.1c-8.6,23.6-256.2,349.5-284.1,375.2
		c-23.6,20.4-23.6,20.4-90.1-16.1c-121.1-65.4-246.6-146.9-484.6-312c-231.6-160.8-396.7-269.1-462.1-302.3
		c-60-31.1-241.2-60-481.4-77.2c-129.7-9.6-280.9-26.8-335.6-37.5c-89-18.2-114.7-28.9-235.9-101.9
		c-154.4-92.2-388.1-253-403.1-277.7c-7.5-10.7-1.1-42.9,18.2-100.8c16.1-47.2,28.9-87.9,28.9-91.1c0-9.6-99.7-36.4-203.7-54.7
		c-292.7-50.4-567.1-17.2-807.3,98.6c-134,64.3-211.2,121.1-332.3,247.7c-188.7,196.2-329.1,469.6-414.9,812.6
		c-28.9,116.9-27.9,227.3,5.4,404.2c35.4,190.8,45,261.6,59,440.6c18.2,238,32.2,345.2,59,471.7c37.5,171.5,55.7,292.7,80.4,557.5
		c23.6,251.9,46.1,423.5,69.7,523.2l13.9,61.1l-44,35.4c-110.4,87.9-254.1,166.2-436.3,235.9c-550,211.2-717.2,268-879.1,301.3
		c-315.2,64.3-580,113.6-670.1,125.4c-92.2,11.8-374.2,9.6-387-3.2c-3.2-4.3-22.5-77.2-44-163l-37.5-156.5h-67.5
		c-37.5,0-131.9,9.6-211.2,21.4c-78.3,11.8-165.1,21.4-193,21.4c-60,0-67.5-8.6-110.4-123.3c-15-41.8-38.6-90.1-52.5-107.2
		l-25.7-31.1l-83.6,13.9c-46.1,7.5-149,34.3-229.4,60c-238,76.1-347.4,108.3-584.3,170.5c-378.4,99.7-381.7,101.8-389.2,229.4
		c-3.2,60,4.3,105.1,44,261.6c59,224.1,74,308.8,104,550c25.7,204.8,40.7,280.9,79.3,414.9c32.2,113.6,50.4,246.6,40.7,302.3
		l-7.5,40.7l-268,67.5c-146.9,37.5-362.4,96.5-477.1,130.8l-209.1,63.3l-72.9-62.2c-83.6-71.8-140.4-102.9-297-160.8
		c-547.8-204.8-1184.7-273.4-1790.4-195.1c-1022.8,131.9-2120.6,680.8-3082.2,1539.5c-236.9,211.2-304.5,286.2-365.6,407.4
		c-33.2,66.5-59,105.1-69.7,105.1c-34.3,0-54.7-39.7-63.3-123.3c-4.3-45-10.7-83.6-13.9-86.8c-3.2-3.2-127.6,37.5-276.6,91.1
		c-473.9,168.3-1224.3,429.9-1230.8,429.9C19960.9,43585.3,19733.6,43295.8,19459.2,42942z M20251.4,43267.9c2.1-1.1,2.1-5.4,0-8.6
		c-7.5-6.4-397.7-123.3-414.9-123.3c-7.5,0,26.8,50.4,75,111.5l87.9,111.5l123.3-42.9
		C20191.4,43291.5,20249.3,43270.1,20251.4,43267.9z M20533.4,42967.7c-145.8-244.4-239.1-380.6-273.4-399.9
		c-24.7-13.9-34.3-13.9-90.1,5.4c-48.2,17.2-565,263.7-577.9,276.6c-10.7,10.7,1033.5,312,1045.3,301.3
		C20639.5,43148.9,20593.4,43066.4,20533.4,42967.7z M21070.5,42978.5c145.8-51.5,261.6-96.5,257.3-100.8
		c-8.6-7.5-386-122.2-426.7-129.7c-15-2.1-23.6,10.7-38.6,66.5c-51.5,179-70.8,257.3-65.4,257.3
		C20801.4,43071.7,20923.6,43029.9,21070.5,42978.5z M20740.3,42821.9c17.2-56.8,26.8-107.2,23.6-110.4
		c-8.6-8.6-247.7-79.3-251.9-74c-3.2,2.1,37.5,71.8,90.1,154.4c52.5,82.6,98.6,146.9,101.8,142.6
		C20708.1,42930.2,20724.2,42879.8,20740.3,42821.9z M21833.8,42625.7c1035.6-920.9,2158.1-1472,3275.2-1609.2
		c217.6-25.7,694.7-26.8,911.3,0c287.3,35.4,627.2,115.8,905.9,215.5c57.9,21.4,107.2,36.4,109.4,34.3
		c5.4-5.4-113.6-379.5-130.8-414.9c-12.9-23.6-44-39.7-189.8-93.3c-421.3-156.5-836.2-257.3-1241.5-304.5
		c-185.5-20.4-667.9-17.2-836.2,5.4c-364.5,51.5-655,139.4-953.1,291.6c-247.7,125.4-436.3,264.8-617.5,454.6
		c-59,62.2-149,154.4-199.4,204.8c-64.3,63.3-96.5,104-106.1,134c-33.2,107.2-85.8,186.5-141.5,215.5l-27.9,13.9l-12.9-90.1
		l-12.9-90.1l-210.1,72.9c-116.9,40.7-421.3,149-677.6,241.2s-500.7,180.1-543.5,195.1l-77.2,27.9l-21.4,71.8
		c-46.1,154.4-87.9,314.1-83.6,319.5c7.5,6.4,716.2,215.5,736.5,216.6C21698.7,42739.4,21763.1,42687.9,21833.8,42625.7z
		 M19554.6,42537.8c24.7-91.1,42.9-168.3,38.6-171.5c-8.6-8.6-459.9-141.5-464.2-136.2c-2.1,1.1,80.4,111.5,182.3,244.4
		c101.8,132.9,188.7,238,191.9,233.7C19506.3,42705.1,19529.9,42627.9,19554.6,42537.8z M19794.7,42534.6l130.8-66.5l-96.5-35.4
		c-52.5-19.3-101.8-35.4-107.2-35.4c-6.4-1.1-23.6,45-38.6,100.8c-15,55.8-25.7,101.8-23.6,101.8S19721.8,42570,19794.7,42534.6z
		 M20873.2,42357.7c19.3-68.6,32.2-126.5,30-128.7c-3.2-4.3-288.4,123.3-354.9,158.7c-18.2,9.7,1.1,18.2,112.6,51.5
		c72.9,22.5,142.6,40.7,155.5,41.8C20835.7,42482.1,20843.2,42466,20873.2,42357.7z M20523.7,42186.2
		c119-56.8,254.1-120.1,300.2-140.4c45-21.4,82.6-42.9,82.6-47.2c0-5.4-72.9-125.4-163-267c-163-258.4-163-258.4-196.2-250.9
		c-65.4,13.9-251.9,92.2-425.6,178l-179,89l128.7,203.7c70.8,112.6,147.9,233.7,170.5,271.2c23.6,36.5,47.2,66.5,53.6,66.5
		C20301.8,42289.1,20404.7,42243,20523.7,42186.2z M20078.8,42244.1c-8.6-13.9-61.1-95.4-115.8-182.3
		c-54.7-87.9-101.8-158.7-106.1-158.7c-9.6,0-81.5,266.9-74,274.5c7.5,6.4,276.6,87.9,297,89
		C20091.7,42267.7,20091.7,42263.4,20078.8,42244.1z M19726.1,41935.3c30-109.4,54.7-205.8,54.7-213.3s-51.5-80.4-114.7-160.8
		c-63.3-80.4-269.1-343.1-456.7-583.2l-342-437.4l-47.2,44c-38.6,35.4-54.7,44-82.6,40.7l-34.3-3.2l-3.2-90.1
		c-3.2-109.4,22.5-224.1,79.3-340.9l38.6-80.4l-62.2-80.4c-91.1-117.9-481.4-451.3-813.7-694.7c-589.6-431-1220-741.9-1752.9-867.3
		c-215.5-50.4-335.6-64.3-556.4-65.4H15426l-39.7,48.2c-120.1,150.1-234.8,235.9-314.1,235.9c-36.5,0-36.5,0-7.5-91.1
		c11.8-39.7,19.3-74,16.1-77.2c-3.2-3.2-50.4-15-105.1-26.8c-108.3-21.4-1362.6-253-1423.7-262.7c-36.5-5.4-44,1.1-182.3,134
		l-144.7,138.3l259.4,268l260.5,266.9l205.8-4.3c243.4-5.4,411.7,10.7,694.7,67.5c1188.9,239.1,2302.8,836.2,3441.4,1842.9
		c79.3,70.8,277.7,260.5,439.6,423.5c297,297,373.1,389.2,440.6,529.6c22.5,47.2,30,52.5,84.7,68.6c32.2,8.6,182.3,54.7,332.3,99.7
		c150.1,46.1,276.6,80.4,279.8,76.1C19667.1,42136.9,19695,42044.7,19726.1,41935.3z M21474.7,41761.6
		c359.2-125.4,888.8-318.4,910.2-330.2c11.8-6.4,10.7-9.6-5.4-13.9c-84.7-26.8-1000.3-285.2-1016.3-288.4
		c-17.2-3.2-32.2,40.7-125.4,366.7c-59,203.7-106.1,374.2-106.1,379.5c0,4.3,8.6,5.4,19.3,1.1
		C21160.6,41873.1,21306.4,41820.6,21474.7,41761.6z M21119.8,41491.5c53.6-188.7,95.4-345.2,92.2-347.4
		c-2.1-2.1-110.4,46.1-240.1,107.2c-236.9,110.4-236.9,110.4-231.6,141.5c15,81.5,257.3,484.6,274.5,454.6
		C21019,41839.9,21066.2,41679.1,21119.8,41491.5z M20212.8,41403.6c130.8-62.2,240.1-114.7,242.3-116.9s-63.3-108.3-143.7-235.9
		c-81.5-127.6-149-229.4-152.2-227.3c-4.3,4.3-196.2,678.6-196.2,689.4C19963,41521.5,19977,41516.1,20212.8,41403.6z
		 M19952.3,41131.2c54.7-191.9,99.7-354.9,100.8-363.4c1.1-10.7-139.4-55.8-510.3-161.9c-282-80.4-512.5-143.7-512.5-140.4
		c0,3.2,84.7,114.7,188.7,247.7c104,132.9,285.2,365.6,404.2,516.7c134,171.5,218.7,271.2,223,262.7
		C19850.5,41486.1,19897.6,41323.1,19952.3,41131.2z M27853.6,41259.9c85.8-33.2,105.1-48.2,117.9-93.3
		c10.7-35.4,6.4-66.5-31.1-233.7c-23.6-106.1-55.7-279.8-70.8-386c-26.8-179-59-338.8-127.6-632.5c-16.1-64.3-35.4-180.1-44-257.3
		c-22.5-191.9-31.1-234.8-96.5-498.5c-31.1-126.5-62.2-278.7-68.6-337.7c-7.5-59-17.2-150.1-23.6-202.6
		c-5.4-51.5-30-169.4-54.7-262.7c-71.8-277.7-82.5-324.8-99.7-479.2c-28.9-244.4-78.3-480.3-142.6-669l-31.1-91.1l-84.7,2.1
		c-51.5,1.1-188.7,22.5-352.7,55.8c-146.9,28.9-339.9,63.3-428.8,76.1c-197.3,27.9-313.1,48.2-393.5,71.8
		c-56.8,15-63.3,20.4-74,56.8c-16.1,53.6,16.1,129.7,65.4,155.5c32.2,17.2,44,17.2,159.7,1.1c68.6-9.6,224.1-36.4,345.2-60
		c121.1-22.5,253-45,291.6-49.3c69.7-7.5,71.8-6.4,146.9,38.6l76.1,46.1l-51.5,30c-77.2,44-196.2,80.4-351.6,106.1
		c-323.8,52.5-389.2,64.3-441.7,80.4c-47.2,13.9-55.7,20.4-62.2,49.3c-12.9,59,5.4,141.5,56.8,261.6c45,106.1,54.7,120.1,90.1,136.2
		c37.5,18.2,49.3,18.2,155.5,4.3c64.3-8.6,210.1-38.6,324.8-66.5c249.8-60,303.4-63.3,386-21.4c32.2,17.2,61.1,32.2,63.3,34.3
		c8.6,7.5-87.9,100.8-119,117.9c-16.1,8.6-149,39.7-294.8,68.6c-254.1,51.5-450.3,100.8-466.4,115.8c-8.6,8.6,60,195.1,101.8,275.5
		c15,30,44,69.7,64.3,90.1l38.6,36.5l87.9-13.9c48.2-6.4,175.8-34.3,282-60c347.4-86.8,357-86.8,432.1-30c42.9,32.2,44,46.1,8.6,89
		c-34.3,39.7-70.8,51.5-359.1,119c-255.2,59-418.1,106.1-418.1,119c0,5.4,15,62.2,32.2,127.6c36.4,131.9,69.7,206.9,111.5,245.5
		c24.7,23.6,33.2,24.7,105.1,19.3c42.9-3.2,167.2-31.1,275.5-60c201.6-55.8,315.2-76.1,361.3-67.5c32.2,6.4,84.7,56.8,93.3,89
		c5.4,18.2-3.2,32.2-33.2,60c-21.4,20.4-53.6,45-71.8,53.6c-17.2,9.6-164,50.4-325.9,90.1c-160.8,39.7-297,76.1-302.3,81.5
		c-10.7,11.8,55.8,257.3,82.6,303.4c27.9,48.2,83.6,85.8,127.6,85.8c19.3,0,119-23.6,220.9-52.5c241.2-67.5,283-76.1,384.9-76.1
		h83.6l-5.4,46.1c-10.7,92.2-21.4,110.4-79.3,136.2c-30,11.8-127.6,39.7-216.6,59c-90.1,20.4-186.5,45-216.6,54.7
		c-70.8,22.5-155.5,66.5-161.9,83.6c-5.4,15,33.2,142.6,80.4,263.7l31.1,80.4l72.9,3.2c87.9,4.3,187.6-15,377.4-72.9
		c216.6-64.3,206.9-64.3,247.7-8.6c25.7,34.3,33.2,54.7,31.1,83.6c-3.2,35.4-7.5,38.6-76.1,67.5c-40.7,16.1-156.5,51.5-257.3,77.2
		c-101.8,24.7-197.3,50.4-212.3,56.8c-38.6,15-74,63.2-74,99.7c0,40.7,45,163,112.6,305.5l55.7,119l240.1-62.2
		C27686.4,41311.4,27821.4,41272.8,27853.6,41259.9z M20949.4,41050.8c156.5-75,288.4-140.4,293.8-145.8
		c7.5-6.4-291.6-672.2-314.1-697.9c-5.4-6.4-644.3,408.5-680.8,441.7c-7.5,7.5,164,287.3,323.8,527.5
		C20603.1,41223.4,20557,41239.5,20949.4,41050.8z M21372.8,40598.4c67.5-227.3,240.1-843.7,236.9-846.9
		c-4.3-5.4-550,358.1-558.6,372c-7.5,11.8,261.6,610,274.5,611.1C21328.9,40734.6,21350.3,40673.5,21372.8,40598.4z M20483,40281.1
		c147.9-94.3,340.9-233.7,354.9-255.2c5.4-9.7-254.1-580-274.5-602.5c-4.3-4.3-30,69.7-56.8,166.2c-26.8,96.5-89,314.1-137.2,484.6
		c-47.2,170.5-90.1,317.3-93.3,327c-5.4,13.9-1.1,12.9,24.7-3.2C20319,40386.1,20400.5,40333.6,20483,40281.1z M21342.8,39710.7
		l323.8-215.5l-204.8-191.9c-113.6-106.1-211.2-196.2-218.7-200.5c-12.9-8.6-599.3,110.4-612.2,124.4c-3.2,3.2,69.7,170.5,163,370.9
		l169.4,364.5l27.9-18.2C21006.2,39934.8,21164.8,39829.7,21342.8,39710.7z M30433,39645.3c266.9-35.4,353.8-55.7,686.1-154.4
		c364.5-109.4,546.8-181.2,731.2-287.3l66.5-38.6l-48.2-49.3c-44-44-53.6-63.3-81.5-160.8c-17.2-61.1-34.3-114.7-37.5-120.1
		c-9.6-15-100.8,2.1-167.2,31.1c-54.7,24.7-62.2,31.1-68.6,66.5c-4.3,21.4-1.1,72.9,6.4,113.6c25.7,139.4,25.7,138.3-4.3,173.7
		c-57.9,68.6-132.9,68.6-160.8,1.1c-20.4-48.2-134-533.9-332.3-1418.4c-188.7-842.7-260.5-1149.3-350.6-1506.3
		c-86.8-345.2-85.8-343.1-97.6-343.1c-5.4,0-189.8,77.2-408.5,170.5c-405.2,173.7-611.1,257.3-857.7,349.5
		c-75,27.9-158.7,65.4-184.4,81.5c-62.2,39.7-63.3,64.3-5.4,211.2c23.6,60,69.7,204.8,102.9,320.6
		c61.1,211.2,92.2,294.8,173.7,480.3c23.6,53.6,57.9,152.2,77.2,219.8c63.3,229.4,98.6,337.7,144.7,446
		c44,100.8,86.8,231.6,230.5,690.4c31.1,97.6,75,225.1,97.6,284.1c23.6,59,52.5,150.1,64.3,203.7
		c37.5,172.6,101.8,262.7,186.5,262.7C30215.4,39673.2,30322.6,39661.4,30433,39645.3z M28255.6,39399.8
		c269.1-69.7,571.4-158.7,755.8-221.9c99.7-34.3,132.9-50.4,129.7-62.2c-47.2-170.5-175.8-601.4-193-648.6
		c-12.9-35.4-47.2-116.9-76.1-182.3c-50.4-113.6-64.3-156.5-159.7-477.1c-23.6-80.4-68.6-205.8-101.8-278.7
		c-32.2-74-78.3-201.6-102.9-284.1c-111.5-378.4-132.9-423.5-209.1-423.5c-18.2,0-106.1,21.4-194,47.2
		c-89,25.7-257.3,69.7-375.2,97.6c-116.9,26.8-231.6,54.7-253,60l-40.7,10.7v104c0,119,16.1,225.1,68.6,469.6
		c20.4,93.3,54.7,276.6,76.1,406.3s60,332.3,85.8,450.3c25.7,117.9,62.2,313.1,79.3,434.2c18.2,121.1,39.7,254.1,48.2,294.8
		c22.5,106.1,69.7,254.1,89,274.5C27900.8,39492,27898.6,39492,28255.6,39399.8z M29664.4,39359.1c20.4-7.5,45-24.7,56.8-39.7
		c19.3-26.8,19.3-28.9-11.8-155.5c-31.1-125.4-98.6-328.1-240.1-719.4c-38.6-106.1-92.2-269.1-119-362.4
		c-27.9-92.2-80.4-244.4-117.9-336.6s-102.9-278.7-145.8-414.9c-74-236.9-173.7-514.6-215.5-597.2c-39.7-77.2-102.9-92.2-197.3-47.2
		c-97.6,48.2-102.9,55.8-91.1,131.9c17.2,107.2,57.9,233.7,134,416c93.3,223,463.1,1284.4,664.7,1903c40.7,128.6,56.8,163,89,196.2
		c35.4,36.5,42.9,39.7,98.6,38.6C29601.1,39371.9,29644,39366.6,29664.4,39359.1z M21949.6,39140.4
		c90.1-116.9,167.2-217.6,170.5-224.1c4.3-5.4-141.5,20.4-324.8,59c-182.3,38.6-331.3,72.9-331.3,77.2c0,6.4,312,299.1,318.4,299.1
		C21783.4,39351.6,21858.5,39256.2,21949.6,39140.4z M32093.7,39085.7l48.2-71.8l-21.4-110.4c-30-161.9-59-358.1-101.8-699
		c-20.4-168.3-49.3-380.6-64.3-471.7c-13.9-91.1-27.9-209.1-32.2-262.7c-3.2-52.5-30-255.2-59-450.3
		c-28.9-194.1-57.9-419.2-64.3-498.5c-13.9-178-16.1-195.1-55.7-434.2c-42.9-261.6-62.2-422.4-62.2-522.1c0-80.4-1.1-83.6-27.9-90.1
		c-15-4.3-57.9-4.3-95.4-1.1c-85.8,6.4-167.2,49.3-216.6,113.6c-56.8,74-55.7,92.2,11.8,391.3c140.4,612.2,202.6,890.9,258.4,1162.1
		c32.2,157.6,75,351.6,95.4,431c47.2,179,78.3,324.8,135.1,627.2c24.7,129.7,60,313.1,80.4,407.4c19.3,94.3,46.1,231.6,57.9,305.5
		c18.2,117.9,51.5,246.6,61.1,246.6C32043.3,39158.6,32066.9,39126.4,32093.7,39085.7z M20818.6,38972.1
		c120.1-25.7,219.8-48.2,221.9-51.5c2.1-2.1-112.6-112.6-255.2-246.6c-181.2-169.4-260.5-236.9-262.7-224.1
		c-2.1,10.7,9.6,132.9,24.7,273.4c15,139.4,26.8,263.7,26.8,275.5c0,10.7,6.4,20.4,13.9,20.4
		C20594.5,39019.2,20698.5,38997.8,20818.6,38972.1z M13229.3,38837c-90.1-94.3-167.2-171.5-170.5-171.5
		c-10.7,0-240.1,234.8-234.8,240.1c6.4,7.5,500.7,100.8,538.2,101.8C13390.1,39008.5,13376.1,38991.4,13229.3,38837z
		 M12648.2,38754.4c-17.2-330.2-33.2-560.7-39.7-571.4c-4.3-6.4-56.8-19.3-115.8-27.9c-127.6-17.2-482.4-47.2-567.1-47.2h-59
		l142.6,152.2c208,221.9,618.6,630.4,632.5,630.4C12651.4,38890.6,12652.5,38854.1,12648.2,38754.4z M21744.8,38776.9
		c243.4-50.4,444.9-94.3,446-96.5c5.4-3.2-589.6-745.1-610-762.3c-11.8-8.6-127.6,31.1-479.2,163
		c-254.1,95.4-466.4,176.9-471.7,181.2c-13.9,16.1,636.8,620.7,659.3,612.2C21295.6,38872.4,21501.5,38828.4,21744.8,38776.9z
		 M12138.9,38679.4c-145.8-156.5-205.8-214.4-205.8-201.6c-1.1,35.4,37.5,259.4,45,268s214.4,54.7,264.8,57.9
		C12250.4,38804.8,12204.3,38748,12138.9,38679.4z M12878.7,38480l-100.8-98.6l6.4,128.6c4.3,70.8,9.6,154.4,13.9,186.5l6.4,56.8
		l86.8-86.8l86.8-86.8L12878.7,38480z M31614.5,38623.6c69.7-35.4,81.5-55.7,74-127.6c-5.4-51.5-54.7-233.7-66.5-246.6
		c-5.4-5.4-93.3,20.4-145.8,41.8c-35.4,16.1-53.6,32.2-66.5,59c-36.4,76.1-12.9,228.4,42.9,272.3
		C31488,38650.4,31560.9,38650.4,31614.5,38623.6z M22746.2,38113.3c629.3-813.7,692.6-896.3,689.4-899.5
		c-7.5-7.5-1649.9,610-1646.7,617.5c1.1,4.3,135.1,173.7,297,377.4c221.9,277.7,298,365.6,307.7,355.9
		C22399.9,38558.2,22558.6,38355.6,22746.2,38113.3z M13329,38224.8c-4.3-4.3-84.7-12.9-179-19.3c-94.3-7.5-185.5-16.1-203.7-18.2
		c-27.9-5.4-18.2,7.5,85.8,112.6l117.9,119l93.3-93.3C13294.7,38274.1,13333.3,38229.1,13329,38224.8z M14923.2,38175.5
		c-62.2-64.3-235.9-243.4-387-397.7l-274.5-283l-277.7,270.2c-152.2,149-275.5,273.4-273.4,277.7c2.1,3.2,100.8,24.7,219.8,47.2
		c448.1,83.6,1075.3,198.3,1089.2,199.4C15028.2,38290.2,14985.3,38238.8,14923.2,38175.5z M31494.4,38074.7
		c67.5-20.4,79.3-26.8,79.3-47.2c0-42.9-44-289.5-53.6-299.1c-10.7-11.8-126.5,19.3-184.4,48.2c-56.8,28.9-72.9,57.9-72.9,128.7
		s15,120.1,51.5,169.4C31344.3,38115.5,31357.2,38115.5,31494.4,38074.7z M20949.4,37883.9c249.8-95.4,456.7-174.8,458.9-176.9
		c2.1-3.2-202.6-262.7-454.6-576.8c-597.2-744-648.6-807.3-657.2-810.5c-4.3-1.1,152.2,1517,181.2,1743.2c0,2.1,3.2,1.1,8.6-2.1
		C20490.5,38058.6,20698.5,37978.2,20949.4,37883.9z M13452.3,37987.9c-4.3-25.7-12.9-165.1-19.3-312l-12.9-264.8l-39.7-10.7
		c-104-27.9-320.6-55.8-550-70.8l-115.8-6.4l6.4,99.7c4.3,55.8,12.9,200.5,20.4,322.7c7.5,122.2,17.2,226.2,21.4,230.5
		c8.6,9.6,502.8,53.6,621.8,55.8l72.9,1.1L13452.3,37987.9z M13907.9,37670.5c128.7-127.6,232.6-231.6,230.5-232.6
		c-10.7-7.5-535-38.6-541.4-33.2c-11.8,11.8-16.1,240.1-7.5,411.7l7.5,152.2l39.7-33.2
		C13658.1,37917.1,13780.3,37798.1,13907.9,37670.5z M12341.6,37928.9c-5.4-10.7-41.8-50.4-80.4-89l-70.8-69.7l-71.8,71.8
		c-39.7,39.7-69.7,74-67.5,77.2c5.4,4.3,193,23.6,265.9,26.8C12346.9,37947.1,12350.1,37945,12341.6,37928.9z M12102.5,37688.8
		c-5.4-17.2-343.1-364.5-348.4-359.1c-5.4,4.3,78.3,563.9,89,595c3.2,8.6,51.5-30,132.9-106.1
		C12047.8,37752,12103.6,37693.1,12102.5,37688.8z M12583.9,37628.7c-6.4-120.1-13.9-217.6-17.2-217.6c-4.3,0-52.5,46.1-108.3,101.9
		l-101.8,101.8l117.9,117.9c64.3,64.3,117.9,115.8,117.9,114.7C12593.5,37846.4,12589.2,37747.7,12583.9,37628.7z M31352.9,37549.4
		c106.1-44,111.5-55.8,90.1-167.2c-16.1-83.6-75-228.4-91.1-228.4c-26.8,2.1-171.5,84.7-188.7,108.3c-26.8,36.5-35.4,113.6-18.2,164
		c17.2,53.6,96.5,169.4,111.5,164C31262.8,37586.9,31305.7,37569.8,31352.9,37549.4z M12587.1,37205.3c0-27.9-38.6-283-116.9-764.4
		c-35.4-217.6-75-468.5-87.9-557.5c-12.9-87.9-24.7-161.9-25.7-164c-1.1-1.1-25.7,2.1-53.6,8.6c-27.9,6.4-66.5,8.6-86.8,4.3
		c-31.1-5.4-36.5-10.7-36.5-35.4c0-63.3,54.7-142.6,187.6-274.5c126.5-125.4,130.8-130.8,147.9-198.3
		c31.1-124.4,42.9-256.2,36.5-407.4c-9.6-242.3-56.8-422.4-166.2-637.9c-79.3-154.4-190.8-302.3-355.9-466.4
		c-197.3-198.3-417-354.9-640-457.8c-96.5-42.9-116.9-42.9-298,2.1c-209.1,51.5-521,141.5-521,149c0,4.3,41.8,37.5,94.3,72.9
		c546.8,373.1,944.5,915.6,1118.2,1530.9c149,524.2,155.5,1142.8,19.3,1779.7c-18.2,85.8-34.3,169.4-34.3,186.5
		c-1.1,25.7,37.5,69.7,250.9,289.5l251.9,260.5l158.7-150.1C12527,37282.5,12587.1,37218.1,12587.1,37205.3z M14291.7,37248.1
		c0-7.5,9.6-139.4,21.4-292.7s24.7-323.8,27.9-378.4l7.5-99.7l-68.6,6.4c-37.5,3.2-223,12.9-411.7,22.5
		c-188.7,9.6-345.2,19.3-347.4,21.4c-6.4,5.4,32.2,662.6,38.6,669c4.3,4.3,617.5,60,703.3,63.2
		C14278.8,37261,14291.7,37255.7,14291.7,37248.1z M13401.9,37151.7c-1.1-60-31.1-514.6-34.3-517.8
		c-2.1-2.1-121.1,111.5-265.9,251.9l-262.7,255.2l96.5,7.5c53.6,4.3,161.9,13.9,241.2,21.4
		C13410.4,37191.3,13401.9,37192.4,13401.9,37151.7z M14852.4,36752.8c169.4-164,307.7-301.3,307.7-305.5
		c0-15-662.5,23.6-675.4,38.6c-4.3,5.4-16.1,126.5-25.7,271.2c-9.6,144.7-20.4,293.8-24.7,332.3l-5.4,69.7l56.8-53.6
		C14517.9,37075.5,14681.9,36916.9,14852.4,36752.8z M13168.2,36653.1l136.2-137.2l-382.7-393.5c-210.1-215.5-383.8-389.2-386-384.9
		c-1.1,5.4,25.7,189.8,61.1,409.5c35.4,220.8,82.6,517.8,104,660.4l40.7,258.4l145.8-137.2
		C12966.6,36852.5,13093.1,36729.3,13168.2,36653.1z M31236,36993c75-36.4,96.5-67.5,95.4-132.9c-1.1-41.8-51.5-216.6-68.6-234.8
		c-3.2-4.3-48.2,9.7-99.7,31.1c-63.3,25.7-102.9,50.4-126.5,77.2c-32.2,36.5-33.2,41.8-26.8,100.8c7.5,78.3,39.7,142.6,84.7,169.4
		C31140.6,37032.7,31158.8,37030.5,31236,36993z M36230.9,36683.2c17.2-11.8,48.2-41.8,67.5-66.5c34.3-44,35.4-46.1,17.2-64.3
		c-52.5-50.4-395.6-278.7-434.2-289.5c-34.3-8.6-61.1-7.5-125.4,6.4c-119,25.7-113.6,20.4-77.2,74c41.8,60,114.7,124.4,213.3,186.5
		c44,27.9,121.1,78.3,171.5,111.5c51.5,34.3,102.9,62.2,114.7,62.2S36213.7,36693.9,36230.9,36683.2z M31061.3,36447.3
		c49.3-23.6,102.9-56.8,119-74l30-32.2l-10.7-83.6c-6.4-47.2-22.5-106.1-36.5-132.9c-20.4-42.9-27.9-48.2-57.9-47.2
		c-49.3,2.1-151.2,52.5-190.8,94.3c-33.2,36.5-34.3,38.6-24.7,97.6c7.5,52.5,68.6,219.8,79.3,219.8
		C30971.2,36489.1,31013,36469.8,31061.3,36447.3z M13996.9,36322.9c165.1-6.4,337.7-23.6,350.6-36.4c4.3-3.2,12.9-37.5,18.2-76.1
		c12.9-81.5,47.2-548.9,41.8-577.9c-2.1-13.9-104,79.3-373.1,344.1l-369.9,363.4l85.8-5.4
		C13797.5,36331.5,13909,36326.2,13996.9,36322.9z M14940.3,36273.6c136.2-6.4,280.9-15,322.7-18.2l75-7.5l-86.8-276.6
		c-48.2-152.2-92.2-280.9-97.6-285.2c-8.6-8.6-576.8-204.8-592.9-204.8c-3.2,0-18.2,155.5-32.2,346.3
		c-12.9,189.8-26.8,373.1-30,408.5l-6.4,63.2l100.8-7.5C14648.7,36288.6,14805.2,36280.1,14940.3,36273.6z M15749.7,36092.4
		c121.1-48.2,231.6-92.2,246.6-98.6c21.4-7.5,23.6-11.8,10.7-18.2c-30-16.1-624-217.6-628.2-213.3c-8.6,9.6,128.7,426.7,139.4,422.4
		C15524.6,36182.5,15628.6,36140.7,15749.7,36092.4z M35695.9,36098.9c120.1-32.2,496.4-182.3,879.1-351.6
		c147.9-65.4,323.8-142.6,391.3-170.5l123.3-51.5l8.6-121.1c4.3-66.5,26.8-314.1,50.4-550c66.5-672.2,71.8-816.9,30-948.8
		c-6.4-20.4-67.5-189.8-137.2-375.2c-69.7-185.5-139.4-378.4-155.5-428.8l-27.9-91.1l-91.1-63.2c-50.4-34.3-93.3-60-96.5-56.8
		c-2.1,2.1,30,97.6,71.8,212.3c41.8,114.7,102.9,283,135.1,374.2c32.2,91.1,84.7,231.6,115.8,310.9
		c109.4,272.3,110.4,287.3,66.5,782.6c-56.8,626.1-81.5,810.5-114.7,857.7c-11.8,16.1-59,49.3-104,72.9
		c-166.2,85.8-963.8,418.1-1101,457.8c-49.3,13.9-91.1,17.2-202.6,12.9c-203.7-7.5-500.7-25.7-792.3-50.4
		c-140.4-11.8-299.1-21.4-353.8-21.4l-99.7,1.1l48.2,42.9c26.8,23.6,65.4,52.5,87.9,63.2c45,24.7,217.6,44,598.2,69.7
		c138.3,9.6,309.8,20.4,380.6,25.7C35600.5,36114.9,35637,36114.9,35695.9,36098.9z M31015.2,35893c18.2-15,40.7-41.8,49.3-59
		c17.2-32.2,21.4-101.8,7.5-110.4c-12.9-7.5-238,83.6-238,96.5c0,7.5,9.6,45,21.4,83.6l22.5,70.8l51.5-25.7
		C30957.3,35933.8,30995.9,35909.1,31015.2,35893z M17199.2,35511.4c428.8-172.6,776.2-317.3,771.9-320.6
		c-9.6-9.7-1707.8-323.8-1713.2-317.3c-3.2,3.2,4.3,62.2,16.1,131.9c22.5,128.7,129.7,805.1,129.7,813.7c0,3.2,3.2,5.4,8.6,5.4
		C16416.6,35824.4,16770.4,35684,17199.2,35511.4z M16144.3,35484.6c-61.1-396.7-102.9-627.2-114.7-639
		c-25.7-25.7-370.9-95.4-973.5-197.3l-34.3-5.4l24.7,78.3c12.9,44,75,239.1,136.2,435.3l111.5,355.9l439.6,150.1
		c241.2,82.6,444.9,150.1,451.3,150.1C16191.4,35813.7,16176.4,35688.3,16144.3,35484.6z M35759.2,35760.1
		c136.2-49.3,625-251.9,870.5-361.3c107.2-47.2,166.2-92.2,180.1-137.2c6.4-21.4,89-901.6,99.7-1057.1
		c7.5-110.4-4.3-158.7-108.3-420.3c-83.6-212.3-208-557.5-263.7-732.2c-23.6-74-27.9-79.3-111.5-144.7
		c-271.2-214.4-664.7-553.2-1153.6-993.8l-262.7-236.9l-17.2,28.9c-238,398.8-500.7,786.9-843.7,1250.1l-134,180.1l18.2,35.4
		c28.9,52.5,83.6,101.8,224.1,197.3l126.5,85.8l77.2-64.3c200.5-169.4,420.3-247.7,688.3-247.7c284.1,0,510.3,94.3,690.4,287.3
		c126.5,135.1,214.4,291.6,305.5,543.5c104,285.2,169.4,551.1,205.8,824.4c21.4,160.8,15,189.8-50.4,224.1
		c-97.6,49.3-521,99.7-851.2,99.7c-338.8,1.1-535-30-771.9-122.2c-226.2-89-419.2-270.2-524.2-494.2c-55.7-117.9-74-199.4-75-347.4
		c-1.1-117.9,2.1-136.2,33.2-225.1c18.2-52.5,55.7-141.5,82.6-197.3c26.8-55.8,49.3-107.2,49.3-114.7
		c0-20.4-172.6-176.9-236.9-215.5c-32.2-19.3-79.3-39.7-106.1-47.2l-48.2-11.8l-418.1,414.9c-395.6,392.4-487.8,476-779.4,702.2
		c-64.3,48.2-115.8,92.2-115.8,96.5c0,9.6,333.4,228.4,883.4,578.9c205.8,130.8,471.7,302.3,589.6,380.6
		c119,78.3,230.5,150.1,248.7,158.7c69.7,35.4,165.1,46.1,779.4,87.9c140.4,9.6,309.8,23.6,375.2,32.2
		C35599.4,35818,35601.6,35818,35759.2,35760.1z M15069,35398.8c-8.6-37.5-182.3-587.5-198.3-629.3c-6.4-17.2-12.9-28.9-15-26.8
		c-6.4,6.4-231.6,525.3-231.6,532.8c0,8.6,405.2,150.1,433.1,151.2C15073.2,35427.7,15075.4,35422.4,15069,35398.8z
		 M35819.2,34923.9c55.8-10.7,123.3-26.8,150.1-34.3l48.2-15l-101.8-80.4c-55.7-44-130.8-101.8-166.2-127.6
		c-72.9-53.6-284.1-182.3-299.1-182.3c-19.3,0,15,305.5,48.2,433.1l10.7,41.8l104-7.5
		C35670.2,34947.4,35763.5,34934.6,35819.2,34923.9z M35289.6,34916.4c-3.2-10.7-20.4-127.6-38.6-260.5
		c-17.2-132.9-37.5-270.2-42.9-305.5c-5.4-35.4-10.7-67.5-10.7-71.8c0-7.5-283-201.6-294.8-201.6c-20.4,0,8.6,307.7,57.9,616.4
		c18.2,112.6,33.2,209.1,33.2,216.6c0,13.9,51.5,19.3,212.3,22.5C35286.4,34934.6,35295,34932.4,35289.6,34916.4z M34742.8,34573.3
		c-20.4-128.7-42.9-301.3-49.3-383.8c-21.4-278.7-41.8-319.5-203.7-418.1l-64.3-39.7l-21.4,25.7c-35.4,42.9-85.8,153.3-107.2,240.1
		c-47.2,182.3-16.1,364.5,89,521c60,90.1,182.3,217.6,242.3,253c53.6,31.1,143.7,57.9,149,44
		C34779.3,34810.2,34764.3,34701.9,34742.8,34573.3z M36124.8,34659.1c-11.8-86.8-71.8-382.7-81.5-401c-5.4-11.8-20.4-15-49.3-11.8
		c-63.2,6.4-392.4,55.8-409.5,61.1c-16.1,6.4,68.6,79.3,230.5,199.4c100.8,75,292.7,200.5,307.7,201.6
		C36128,34709.4,36128,34686.9,36124.8,34659.1z M15996.3,34565.8c0-25.7-288.4-1788.2-293.8-1793.6
		c-3.2-3.2-681.8,1574.9-688.3,1601.7c-5.4,17.2,44,28.9,464.2,106.1C15928.8,34563.6,15996.3,34575.4,15996.3,34565.8z
		 M40251.2,34451.1c28.9-41.8-20.4-113.6-196.2-291.6c-187.6-190.8-244.4-233.7-432.1-322.7c-196.2-94.3-182.3-92.2-227.3-31.1
		c-21.4,27.9-42.9,67.5-50.4,85.8c-9.6,30-7.5,39.7,11.8,67.5c22.5,32.2,409.5,314.1,536,391.3c64.3,38.6,280.9,121.1,323.8,122.2
		C40226.6,34473.6,40242.6,34462.9,40251.2,34451.1z M35599.4,34124.1c364.5-52.5,346.3-48.2,360.2-82.6
		c11.8-26.8,8.6-38.6-23.6-106.1c-23.6-48.2-52.5-90.1-82.6-114.7l-46.1-39.7l-381.7,62.2c-210.1,34.3-384.9,64.3-387,67.5
		c-15,15,156.5,160.8,241.2,205.8c56.8,31.1,67.5,33.2,137.2,27.9C35457.9,34141.2,35540.5,34132.7,35599.4,34124.1z
		 M38263.6,34020.1c164-39.7,489.9-156.5,531.8-190.8c8.6-6.4,6.4-35.4-5.4-99.7c-9.6-50.4-20.4-93.3-24.7-97.6
		c-3.2-4.3-61.1,1.1-128.7,10.7c-409.5,59-691.5,169.4-875.9,343.1l-56.8,53.6l35.4,7.5c20.4,4.3,121.1,5.4,224.1,3.2
		C38118.8,34046.9,38170.3,34042.6,38263.6,34020.1z M39185.6,33757.4l69.7-40.7l-3.2-64.3c-7.5-128.7-36.4-180.1-99.7-178
		c-18.2,0-68.6,8.6-111.5,19.3l-78.3,18.2l-6.4,67.5c-4.3,37.5-4.3,80.4,0,95.4c6.4,26.8,122.2,123.3,146.9,123.3
		C39110.5,33798.2,39147,33779.9,39185.6,33757.4z M35171.7,33696.3c338.8-49.3,548.9-85.8,559.6-96.5c3.2-3.2-20.4-31.1-53.6-62.2
		c-288.4-266.9-788-273.4-1066.7-13.9l-60,55.8l41.8,33.2c104,81.5,203.7,143.7,224.1,138.3
		C34828.6,33747.8,34988.3,33723.1,35171.7,33696.3z M39196.3,33168.9c16.1-151.2,8.6-407.4-16.1-544.6
		c-33.2-188.7-89-392.4-117.9-436.3c-26.8-40.7-28.9-41.8-48.2-24.7c-32.2,28.9-64.3,144.7-85.8,308.8
		c-22.5,178-7.5,530.7,33.2,738.7l11.8,61.1l45,5.4c23.6,3.2,55.8,7.5,70.8,10.7c15,2.1,41.8,4.3,60,5.4l34.3,1.1L39196.3,33168.9z
		 M10287.5,32253.3c111.5-30,206.9-57.9,212.3-62.2c10.7-10.7-221.9-931.6-241.2-949.9c-13.9-15-434.2,96.5-462.1,122.2
		c-10.7,10.7,220.8,893,246.6,937C10051.6,32314.4,10080.5,32309,10287.5,32253.3z M37234.4,32137.5c-15-28.9-172.6-186.5-324.8-327
		c-70.8-64.3-171.5-172.6-228.4-244.4c-196.2-245.5-620.7-705.4-651.8-705.4c-17.2,0-135.1,205.8-135.1,235.9
		c0,5.4,116.9,104,260.5,217.6c142.6,113.6,328.1,273.4,412.8,353.8c290.5,278.7,420.3,380.6,574.6,453.5
		C37232.2,32163.2,37250.4,32166.5,37234.4,32137.5z M11241.6,31657.2c65.4-228.4,124.4-388.1,188.7-505l42.9-78.3l-21.4-30
		l-21.4-30l-164,51.5c-239.1,74-265.9,85.8-265.9,111.5c1.1,60,166.2,700.1,179,688.3
		C11180.5,31863.1,11208.4,31769.8,11241.6,31657.2z M35639.1,31019.3c60-33.2,113.6-105.1,191.9-260.5
		c76.1-151.2,100.8-251.9,90.1-359.2c-8.6-76.1-60-268-72.9-271.2c-22.5-5.4-425.6,799.8-425.6,850.2c0,11.8,12.9,35.4,27.9,50.4
		c24.7,24.7,33.2,26.8,85.8,21.4C35568.3,31047.2,35614.4,31033.3,35639.1,31019.3z M9984.1,30892.8c93.3-30,140.4-50.4,147.9-64.3
		c8.6-16.1,2.1-60-26.8-179c-34.3-144.7-198.3-754.8-204.8-762.3c-10.7-15-465.3,120.1-465.3,138.3c0,36.5,212.3,816.9,242.3,886.6
		l15,37.5l78.3-6.4C9817.9,30940,9900.4,30920.7,9984.1,30892.8z M40295.2,29653.5c20.4-9.6,42.9-26.8,51.5-39.7
		c25.7-39.7,293.8-893,283-903.8c-6.4-6.4-62.2,79.3-241.2,370.9c-269.1,436.3-275.5,450.3-247.7,515.7c13.9,35.4,66.5,74,98.6,74
		C40251.2,29670.6,40275.9,29663.1,40295.2,29653.5z M9501.6,29602c161.9-40.7,298-80.4,298-86.8c0-30-235.9-928.4-246.6-941.3
		c-4.3-5.4-48.2,1.1-97.6,13.9c-152.2,38.6-358.1,98.6-366.7,106.1c-9.6,9.6,225.1,900.6,246.6,937
		C9341.9,29642.8,9345.1,29641.7,9501.6,29602z M39810.6,29602c50.4-21.4,67.5-44,201.6-269.1c66.5-111.5,216.6-360.2,334.5-552.1
		c276.6-448.1,554.3-910.2,565-938.1c22.5-59-60-137.2-123.3-115.8c-33.2,10.7-116.9,139.4-482.4,743
		c-123.3,203.7-298,489.9-388.1,636.8c-205.8,332.3-231.6,382.7-221.9,427.8c9.6,47.2,33.2,71.8,77.2,81.5
		C39774.1,29617,39791.3,29610.6,39810.6,29602z M39438.6,29458.4c23.6-17.2,176.9-264.8,778.3-1250.1
		c319.5-523.2,319.5-523.2,256.2-586.4c-17.2-17.2-41.8-31.1-53.6-31.1c-39.7,0-94.3,62.2-186.5,212.3
		c-82.6,131.9-648.6,1058.2-854.5,1396.9c-85.8,140.4-98.6,174.8-83.6,231.6C39309.9,29487.3,39380.7,29500.2,39438.6,29458.4z
		 M39047.3,29319c22.5-23.6,488.9-780.5,989.5-1607.1c64.3-106.1,72.9-125.4,66.5-157.6c-7.5-40.7-59-92.2-91.1-92.2
		c-51.5,0-74,31.1-360.2,503.9c-116.9,191.9-322.7,529.6-458.9,749.4c-136.2,220.8-260.5,427.8-277.7,459.9
		c-34.3,65.4-37.5,104-12.9,139.4C38939,29367.2,38999,29368.3,39047.3,29319z M38637.7,29191.4c38.6-37.5,138.3-198.3,849.1-1365.8
		c229.4-376.3,236.9-394.5,190.8-453.5c-23.6-28.9-77.2-38.6-114.7-18.2c-28.9,15-66.5,75-497.4,783.7
		c-220.9,362.4-439.6,720.4-485.7,795.5c-67.5,110.4-84.7,146.9-89,190.8c-5.4,56.8,6.4,80.4,46.1,96.5
		C38576.6,29237.5,38597,29231.1,38637.7,29191.4z M38123.1,28623.2c260.5-813.7,441.7-1400.1,434.2-1407.7
		c-5.4-4.3-64.3-25.7-129.7-47.2c-185.5-59-290.5-52.5-401,26.8c-59,41.8-102.9,124.4-155.5,288.4
		c-26.8,85.8-86.8,273.4-132.9,418.1c-153.3,480.3-154.4,483.5-154.4,557.5c-1.1,134,61.1,241.2,169.4,297
		c59,31.1,246.6,97.6,276.6,98.6C38044.9,28855.8,38063.1,28807.6,38123.1,28623.2z M38467.3,28795.8c0-9.6-120.1-132.9-129.7-132.9
		c-5.4,0-21.4,18.2-36.5,40.7l-26.8,39.7l87.9,28.9C38457.6,28803.3,38467.3,28805.5,38467.3,28795.8z M38769.6,28253.3
		c227.3-370.9,323.8-533.9,318.4-538.2c-2.1-2.1-85.8-9.6-186.5-16.1c-99.7-6.4-204.8-15-231.6-18.2c-41.8-5.4-50.4-3.2-54.7,12.9
		c-3.2,11.8-60,188.7-125.4,394.5c-65.4,206.9-116.9,377.4-113.6,379.5c13.9,13.9,173.7,109.4,183.3,109.4
		C38565.9,28577.1,38660.2,28431.3,38769.6,28253.3z M37359.8,28388.4c13.9-8.6,32.2-31.1,40.7-50.4
		c28.9-66.5,348.4-1089.2,348.4-1116c0-7.5-15-26.8-33.2-45c-32.2-31.1-33.2-31.1-49.3-9.6c-30,38.6-66.5,130.8-111.5,280.9
		c-23.6,81.5-79.3,258.4-123.3,394.5c-79.3,243.4-117.9,375.2-147.9,508.2l-16.1,67.5l34.3-6.4
		C37320.1,28408.8,37345.9,28398.1,37359.8,28388.4z M37085.3,28274.8c30-49.3,381.7-1173.9,369.9-1184.7
		c-3.2-4.3-26.8-7.5-51.5-7.5l-46.1-1.1l-66.5,182.3c-36.4,100.8-92.2,266.9-125.4,370.9c-55.8,180.1-199.4,665.8-199.4,677.6
		C36966.3,28323,37076.8,28288.7,37085.3,28274.8z M36938.5,27737.7c89-277.7,149-480.3,142.6-485.7c-7.5-8.6-135.1,37.5-218.7,78.3
		l-78.3,38.6v61.1c0,50.4-4.3,64.3-26.8,85.8c-66.5,62.2-77.2,194-23.6,301.3c31.1,63.3,109.4,153.3,124.4,144.7
		C36863.4,27957.4,36899.9,27857.7,36938.5,27737.7z M39225.2,27493.2c20.4-12.9,35.4-24.7,33.2-25.7c-2.1-2.1-75-13.9-164-26.8
		c-113.6-17.2-188.7-22.5-257.3-18.2c-92.2,5.4-191.9,30-170.5,41.8c7.5,5.4,136.2,28.9,240.1,44c15,3.2,83.6,5.4,154.4,6.4
		C39173.8,27515.7,39193.1,27513.6,39225.2,27493.2z"/>
	<path class="st0" d="M28154.9,39114.6c-42.9-95.4-183.3-637.9-183.3-704.4c0-67.5,25.7-86.8,185.5-140.4
		c156.5-51.5,405.2-111.5,417-99.7c16.1,16.1,199.4,704.4,214.4,805.1c3.2,22.5-7.5,28.9-120.1,72.9
		c-180.1,69.7-293.8,99.7-398.8,107.2l-94.3,6.4L28154.9,39114.6z M28475.4,38906.7c48.2-24.7,69.7-56.8,65.4-99.7
		c-9.6-121.1-74-340.9-110.4-373.1c-44-40.7-171.5-13.9-226.2,47.2c-18.2,19.3-18.2,30-7.5,110.4c20.4,157.6,69.7,289.5,120.1,325.9
		C28344.6,38936.7,28427.2,38931.3,28475.4,38906.7z"/>
	<path class="st0" d="M27864.3,38028.6c0-3.2-24.7-83.6-53.6-180.1c-92.2-297-139.4-495.3-139.4-582.1c0-30,6.4-37.5,51.5-61.1
		c27.9-15,81.5-37.5,119-50.4c62.2-21.4,407.4-108.3,429.9-108.3c10.7,0,109.4,295.9,144.7,439.6c26.8,107.2,80.4,357,80.4,377.4
		c0,11.8-31.1,23.6-199.4,72.9C28134.5,37984.7,27864.3,38041.5,27864.3,38028.6z M28176.3,37769.2l63.3-28.9v-65.4
		c0-100.8-87.9-402-117.9-403.1c-34.3-1.1-246.6,79.3-246.6,92.2c0,25.7,42.9,202.6,70.8,288.4
		C27993,37798.1,28048.7,37826,28176.3,37769.2z"/>
	<path class="st0" d="M29183,43361.2c-128.7-16.1-248.7-74-411.7-197.3l-86.8-65.4l-64.3,34.3c-224.1,120.1-545.7,75-748.3-104
		c-32.2-30-85.8-93.3-117.9-142.6c-69.7-105.1-130.8-163-224.1-208c-253-123.3-394.5-361.3-394.5-661.5c0-140.4,20.4-228.4,60-260.5
		c31.1-24.7,144.7-70.8,153.3-61.1c2.1,2.1-2.1,78.3-10.7,168.3c-22.5,244.4-20.4,299.1,20.4,382.7
		c49.3,102.9,189.8,238,231.6,221.9c7.5-3.2,39.7-47.2,70.8-97.6c30-50.4,56.8-92.2,60-92.2c2.1,0,26.8,16.1,53.6,35.4l49.3,36.5
		l2.1,143.7c1.1,139.4,2.1,145.8,37.5,220.9c78.3,166.2,256.2,282,435.3,282c124.4,0,283-62.2,381.7-147.9l49.3-44l136.2,143.7
		c117.9,124.4,146.9,149,213.3,181.2c111.5,53.6,217.6,69.7,314.1,46.1c95.4-23.6,173.7-71.8,247.7-152.2
		c61.1-64.3,131.9-194,131.9-238c0-31.1-57.9-87.9-131.9-130.8c-75-42.9-125.4-98.6-125.4-139.4c0-41.8,22.5-57.9,89-62.2
		c50.4-4.3,67.5,1.1,168.3,50.4c145.8,71.8,188.7,85.8,305.5,93.3c117.9,7.5,233.7-18.2,358.1-79.3
		c115.8-56.8,251.9-191.9,304.5-303.4c48.2-99.7,71.8-209.1,71.8-327c0-235.9-154.4-472.8-380.6-583.2
		c-115.8-56.8-181.2-69.7-322.7-62.2c-142.6,6.4-220.8,32.2-332.3,106.1c-141.5,94.3-246.6,239.1-303.4,420.3
		c-56.8,178-92.2,206.9-171.5,139.4c-41.8-35.4-47.2-68.6-27.9-170.5c8.6-47.2,16.1-98.6,16.1-113.6c0-62.2-86.8-123.3-216.6-154.4
		c-212.3-49.3-444.9,21.4-608.9,186.5c-98.6,99.7-134,168.3-194,379.5c-24.7,83.6-48.2,156.5-52.5,160.8
		c-11.8,13.9-160.8-64.3-160.8-84.7c0-9.6,19.3-94.3,44-187.6c23.6-94.3,44-184.4,44-200.5s-13.9-64.3-33.2-108.3
		c-39.7-94.3-40.7-102.9-6.4-125.4c22.5-13.9,44-16.1,130.8-9.6l105.1,6.4l96.5-61.1c204.8-130.8,299.1-159.7,514.6-158.7
		c127.6,0,166.2,4.3,251.9,27.9c56.8,16.1,129.7,39.7,161.9,54.7l60,26.8l84.7-75c166.2-146.9,273.4-210.1,427.8-250.9
		c101.8-26.8,314.1-26.8,412.8,0c242.3,66.5,454.6,227.3,555.3,422.4c219.8,421.3,95.4,920.9-294.8,1181.4
		c-147.9,98.6-362.4,158.7-532.8,146.9c-79.3-5.4-84.7-4.3-90.1,17.2c-3.2,12.9-25.7,62.2-50.4,110.4
		C29776.9,43244.3,29501.4,43401.9,29183,43361.2z"/>
	<path class="st0" d="M37419.8,38183c-119-23.6-194.1-54.7-244.4-98.6c-61.1-53.6-166.2-209.1-196.2-290.5
		c-52.5-138.3-57.9-300.2-13.9-398.8c11.8-26.8,115.8-178,229.4-335.6c249.8-345.2,446-619.7,557.5-780.5l82.6-120.1l68.6-18.2
		c107.2-28.9,230.5-19.3,321.6,25.7c75,36.4,161.9,122.2,195.1,193c28.9,61.1,22.5,169.4-17.2,293.8l-33.2,104l31.1,99.7
		c41.8,128.6,49.3,190.8,34.3,277.7c-20.4,116.9-92.2,219.8-225.1,321.6l-36.4,28.9l-11.8,159.7l-12.9,160.8l-69.7,100.8
		c-91.1,129.7-142.6,180.1-227.3,221.9C37732.9,38186.2,37553.8,38208.7,37419.8,38183z M37702.9,37999.7l105.1-22.5l63.3-84.7
		c34.3-47.2,77.2-111.5,94.3-144.7c35.4-64.3,36.4-86.8,12.9-284.1l-6.4-60l91.1-65.4c215.5-156.5,243.4-246.6,142.6-472.8
		c-26.8-61.1-49.3-115.8-49.3-122.2c0-5.4,22.5-40.7,49.3-78.3c42.9-61.1,49.3-77.2,54.7-141.5c5.4-67.5,3.2-77.2-33.2-151.2
		l-39.7-78.3l-106.1,4.3c-86.8,3.2-112.6,8.6-136.2,25.7c-41.8,31.1-113.6,121.1-263.7,331.3c-70.8,100.8-209.1,293.8-305.5,428.8
		c-97.6,136.2-194,283-215.5,327c-34.3,71.8-38.6,90.1-38.6,166.2c0,67.5,6.4,102.9,30,166.2
		C37238.7,37979.3,37414.5,38061.9,37702.9,37999.7z"/>
	<path class="st0" d="M24626.6,36375.5c-1021.7-47.2-1871.9-189.8-2784.2-465.3c-2169.9-655-4116.8-2011.2-5491.2-3827.3
		c-1227.5-1621-1956.6-3476.8-2160.3-5499.8c-38.6-374.2-44-516.7-44-1072.1c0-571.4,5.4-692.6,49.3-1125.7
		c214.4-2128.1,1072.1-4171.5,2440.1-5812.9c242.3-290.5,379.5-439.6,688.3-749.4c411.7-410.6,718.3-678.6,1137.5-994.9
		c1748.6-1316.5,3763-2053,5954.4-2177.4c247.7-13.9,947.7-13.9,1192.2,0c1490.2,85.8,2857.1,441.7,4180.1,1087.1
		c2688.8,1312.2,4755.8,3730.9,5619.9,6578.3c718.3,2368.2,618.6,4908-283,7188.3c-482.4,1221.1-1202.9,2372.5-2093.8,3344.9
		c-165.1,180.1-560.7,573.6-723.7,720.4c-1686.4,1512.7-3709.4,2443.3-5934,2725.2c-189.8,24.7-456.7,49.3-691.5,65.4
		C25519.7,36372.2,24773.5,36381.9,24626.6,36375.5z M25591.5,35469.6c2947.2-166.2,5659.5-1636,7442.4-4030
		c820.1-1102.1,1419.4-2412.2,1716.4-3752.3c277.7-1251.1,314.1-2523.7,109.4-3789.8c-85.8-526.4-210.1-1036.7-379.5-1546
		c-714-2153.8-2190.3-4041.8-4121.1-5269.3c-559.6-355.9-1239.3-694.7-1851.5-923.1c-846.9-315.2-1700.3-510.3-2600.9-591.8
		c-602.5-53.6-1365.8-48.2-1960.8,16.1c-993.8,108.3-1936.2,353.8-2857.1,746.2c-263.7,111.5-781.6,369.9-1035.6,516.7
		c-789.1,454.6-1442,956.3-2095.9,1609.2c-491,492.1-850.2,926.3-1225.4,1483.8c-661.5,979.9-1149.3,2085.2-1420.5,3214.1
		c-280.9,1169.6-351.6,2402.5-203.7,3585.1c335.6,2695.2,1748.6,5127.8,3928.1,6760.6c1206.1,904.8,2639.5,1537.4,4112.5,1815
		C23940.5,35464.2,24768.1,35516.7,25591.5,35469.6z"/>
	<path class="st0" d="M22396.7,33595.5c-84.7-27.9-141.5-80.4-160.8-149c-5.4-21.4-10.7-89-10.7-149v-110.4h255.2
		c140.4,0,258.4,2.1,260.5,4.3s1.1,62.2-2.1,131.9c-8.6,163-30,205.8-127.6,255.2C22569.3,33599.8,22440.6,33610.6,22396.7,33595.5z
		"/>
	<path class="st0" d="M24851.8,33595.5c-84.7-27.9-141.5-80.4-160.8-149c-5.4-21.4-10.7-89-10.7-150.1v-109.4l259.4,2.1l259.4,3.2
		l-3.2,107.2c-4.3,170.5-23.6,215.5-115.8,270.2c-37.5,21.4-65.4,28.9-125.4,31.1C24912.9,33603.1,24866.8,33600.9,24851.8,33595.5z
		"/>
	<path class="st0" d="M27306.8,33595.5c-128.7-41.8-168.3-106.1-179-290.5l-6.4-117.9h263.7h264.8v83.6c0,112.6-16.1,200.5-42.9,238
		c-39.7,55.7-109.4,89-197.3,92.2C27367.9,33603.1,27321.8,33600.9,27306.8,33595.5z"/>
	<path class="st0" d="M22231.6,33072.4c-40.7-127.6-85.8-186.5-182.3-235.9c-81.5-41.8-149-56.8-287.3-64.3l-126.5-6.4v-154.4
		v-153.3h99.7c184.4,0,323.8-46.1,409.5-135.1c64.3-66.5,83.6-105.1,83.6-171.5c0-102.9-67.5-197.3-182.3-254.1
		c-66.5-34.3-174.8-56.8-305.5-66.5l-105.1-7.5v-146.9v-147.9l115.8-6.4c196.2-11.8,293.8-45,384.9-128.7
		c78.3-71.8,106.1-146.9,87.9-234.8c-16.1-70.8-96.5-158.7-185.5-201.6c-76.1-35.4-220.8-64.3-329.1-64.3h-74v-147.9v-149l110.4-7.5
		c242.3-15,395.6-87.9,458.9-217.6c27.9-57.9,31.1-144.7,6.4-190.8c-24.7-48.2-113.6-128.7-174.8-158.7
		c-64.3-32.2-195.1-61.1-275.5-61.1c-32.2,0-74-3.2-92.2-6.4l-33.2-6.4v-142.6c0-164-5.4-155.5,107.2-155.5
		c90.1,0,213.3-22.5,282-52.5c62.2-26.8,152.2-109.4,181.2-167.2c75-145.8-32.2-307.7-247.7-377.4c-26.8-8.6-110.4-18.2-185.5-21.4
		l-137.2-6.4v-152.2v-152.2l94.3-2.1c160.8-2.1,309.8-51.5,405.2-132.9c42.9-37.5,111.5-150.1,111.5-183.3
		c0-16.1-113.6-17.2-1318.7-17.2h-1318.7v-77.2c0-221.9,63.3-361.3,179-394.5c28.9-8.6,1498.8-10.7,5172.8-8.6l5131,3.2l46.1,32.2
		c81.5,59,116.9,160.8,116.9,344.1v100.8h-1311.2c-721.5,0-1314.4,3.2-1317.6,6.4c-15,15,30,106.1,79.3,160.8
		c97.6,106.1,210.1,152.2,405.2,163l123.3,7.5v150.1v150.1l-139.4,7.5c-196.2,9.6-288.4,44-378.4,141.5
		c-104,112.6-104,215.5,0,332.3c72.9,83.6,235.9,144.7,383.8,145.8c32.2,0,77.2,3.2,99.7,6.4l39.7,7.5v142.6v141.5l-71.8,6.4
		c-236.9,20.4-324.8,45-413.8,117.9c-67.5,54.7-114.7,139.4-114.7,206.9c0,63.3,30,117.9,100.8,183.3
		c87.9,79.3,189.8,112.6,392.4,128.7l101.8,7.5v144.7v144.7l-113.6,7.5c-239.1,13.9-389.2,85.8-453.5,214.4
		c-34.3,69.7-35.4,125.4-2.1,197.3c61.1,130.8,209.1,201.6,453.5,215.5l121.1,6.4v147.9v146.9l-93.3,6.4
		c-270.2,19.3-418.1,85.8-480.3,217.6c-44,92.2-31.1,173.7,38.6,254.1c87.9,98.6,203.7,143.7,401,154.4l128.7,7.5v147.9v147.9
		l-101.8,4.3c-174.8,7.5-303.4,53.6-397.7,141.5c-60,55.8-87.9,102.9-107.2,179l-11.8,49.3h-109.4c-174.8,0-351.6-12.9-354.9-25.7
		c-38.6-139.4-96.5-219.8-195.1-271.2c-80.4-42.9-146.9-56.8-294.8-65.4l-121.1-7.5v-150.1v-150.1l123.3-6.4
		c195.1-10.7,306.6-50.4,393.5-140.4c83.6-85.8,99.7-175.8,50.4-274.5c-64.3-130.8-202.6-191.9-472.8-211.2l-99.7-7.5v-147.9v-146.9
		l123.3-6.4c195.1-10.7,287.3-40.7,384.9-126.5c186.5-164,82.6-402-206.9-477.1c-34.3-8.6-114.7-19.3-179-23.6l-116.9-7.5v-144.7
		V30598l112.6-7.5c194-13.9,318.4-57.9,402-142.6c59-57.9,80.4-105.1,80.4-171.5c0-127.6-108.3-239.1-278.7-288.4
		c-47.2-12.9-247.7-38.6-307.7-38.6c-10.7,0-13.9-36.5-13.9-144.7V29661l35.4-5.4c18.2-3.2,78.3-7.5,130.8-10.7
		c199.4-11.8,349.5-89,413.8-212.3c44-85.8,10.7-214.4-74-288.4c-74-65.4-154.4-93.3-315.2-111.5c-80.4-8.6-153.3-19.3-161.9-22.5
		c-21.4-7.5-28.9-52.5-28.9-180.1v-108.3l91.1-2.1c186.5-5.4,337.7-59,429.9-151.2c46.1-46.1,100.8-138.3,100.8-170.5
		c0-10.7-205.8-13.9-991.7-13.9c-718.3,0-991.7,3.2-991.7,11.8c0,6.4,13.9,41.8,31.1,78.3c75,156.5,202.6,223,457.8,240.1l116.9,7.5
		v150.1v150.1l-128.7,6.4c-187.6,8.6-278.7,38.6-367.7,120.1c-84.7,78.3-119,186.5-83.6,268c24.7,60,99.7,132.9,170.5,168.3
		c70.8,34.3,201.6,64.3,284.1,64.3c27.9,0,68.6,3.2,91.1,6.4l39.7,7.5v142.6v142.6l-55.7,5.4c-31.1,3.2-92.2,8.6-135.1,11.8
		c-135.1,11.8-236.9,50.4-314.1,120.1c-77.2,69.7-111.5,173.7-84.7,256.2c16.1,49.3,95.4,136.2,156.5,171.5
		c62.2,36.5,190.8,66.5,321.6,75l112.6,7.5l-3.2,145.8l-3.2,145.8l-114.7,7.5c-199.4,13.9-307.7,52.5-396.7,144.7
		c-87.9,90.1-105.1,170.5-55.7,269.1c65.4,131.9,210.1,199.4,452.4,213.3l120.1,6.4v146.9v146.9l-104,7.5
		c-142.6,10.7-234.8,31.1-310.9,68.6c-68.6,35.4-146.9,111.5-170.5,168.3c-47.2,114.7,27.9,256.2,176.9,331.3
		c72.9,37.5,136.2,50.4,279.8,59l123.3,6.4v150.1v150.1l-117.9,7.5c-186.5,10.7-277.7,38.6-366.7,111.5
		c-51.5,42.9-70.8,74-105.1,175.8l-23.6,69.7l-231.6,3.2l-230.5,2.1l-18.2-61.1c-24.7-84.7-50.4-130.8-98.6-175.8
		c-83.6-80.4-184.4-113.6-369.9-124.4l-126.5-6.4v-152.2v-152.2l131.9-6.4c156.5-6.4,249.8-33.2,328.1-91.1
		c93.3-70.8,129.7-134,129.7-230.5c0-46.1-6.4-67.5-33.2-108.3c-81.5-122.2-205.8-174.8-462.1-195.1l-94.3-6.4v-147.9v-146.9
		l122.2-7.5c202.6-11.8,307.7-50.4,397.7-146.9c203.7-217.6-35.4-479.2-441.7-481.4h-78.3v-149v-147.9l105.1-7.5
		c197.3-13.9,309.8-50.4,398.8-130.8c82.6-75,110.4-194,65.4-280.9c-63.3-122.2-249.8-215.5-435.3-216.6c-28.9,0-71.8-3.2-93.3-6.4
		l-40.7-7.5v-142.6V29661l35.4-5.4c18.2-3.2,75-7.5,125.4-11.8c156.5-9.6,258.4-47.2,340.9-127.6c70.8-66.5,91.1-113.6,85.8-195.1
		c-5.4-79.3-38.6-136.2-112.6-193c-82.6-63.3-178-87.9-402-107.2l-72.9-6.4v-149v-149h89c235.9-1.1,423.5-95.4,496.4-249.8
		c13.9-31.1,25.7-62.2,25.7-68.6c0-10.7-205.8-13.9-991.7-13.9c-672.2,0-991.7,3.2-991.7,10.7c0,6.4,15,41.8,33.2,78.3
		c80.4,161.9,202.6,226.2,457.8,240.1l120.1,6.4v147.9v146.9l-93.3,7.5c-161.9,10.7-236.9,26.8-314.1,65.4
		c-205.8,104-249.8,299.1-97.6,436.3c84.7,76.1,189.8,112.6,349.5,121.1c172.6,8.6,155.5-8.6,155.5,158.7v143.7l-82.6,7.5
		c-212.3,17.2-321.6,49.3-406.3,117.9c-131.9,108.3-143.7,259.4-28.9,372c93.3,90.1,206.9,130.8,408.5,143.7l109.4,7.5v146.9v146.9
		l-115.8,6.4c-195.1,9.6-308.8,50.4-402,141.5c-59,59-89,139.4-77.2,209.1c15,92.2,117.9,195.1,232.6,235.9
		c68.6,23.6,199.4,42.9,293.8,42.9h68.6v149v149l-104,7.5c-202.6,13.9-310.9,49.3-401,130.8c-92.2,83.6-115.8,199.4-61.1,293.8
		c77.2,131.9,239.1,201.6,467.4,202.6h98.6v155.5v155.5h-87.9c-189.8,1.1-335.6,47.2-422.4,134c-33.2,33.2-52.5,67.5-75,130.8
		l-30,85.8l-128.7,7.5c-69.7,3.2-174.8,6.4-231.6,6.4h-102.9L22231.6,33072.4z"/>
	<path class="st0" d="M20863.6,24058.3v-3629h4068.6h4068.6v3629v3629h-4068.6h-4068.6V24058.3z M25198,26867.1
		c293.8-46.1,522.1-116.9,774-240.1c814.8-398.8,1360.5-1163.2,1469.8-2059.5c21.4-176.9,16.1-546.8-10.7-712.9
		c-90.1-565-354.9-1078.5-760.1-1477.3c-432.1-424.5-978.8-684-1581.3-748.3c-176.9-18.2-528.5-7.5-697.9,22.5
		c-680.8,120.1-1270.4,479.2-1682.1,1027.1c-633.6,843.7-700.1,1986.6-168.3,2903.2c199.4,342,515.7,672.2,853.4,890.9
		c348.4,225.1,741.9,364.5,1156.8,409.5C24680.2,26897.1,25071.5,26887.5,25198,26867.1z"/>
	<path class="st0" d="M24594.5,26548.7c-529.6-49.3-1046.4-300.2-1425.9-690.4c-185.5-190.8-304.5-361.3-419.2-599.3
		c-376.3-779.4-287.3-1696,233.7-2394c77.2-102.9,283-316.3,389.2-402c306.6-248.7,680.8-413.8,1098.9-486.7
		c153.3-25.7,535-25.7,696.9,0c665.8,109.4,1221.1,467.4,1583.5,1020.6c383.8,584.3,478.2,1323,255.2,1991.9
		c-168.3,505-517.8,946.7-976.7,1230.8C25619.4,26474.7,25091.9,26595.9,24594.5,26548.7z M25592.6,25847.6
		c-71.8-156.5-201.6-426.7-563.9-1172.9c-98.6-203.7-183.3-380.6-188.7-393.5l-9.6-24.7h295.9c277.7,0,293.8-1.1,284.1-18.2
		c-45-81.5-1401.2-1729.3-1423.7-1729.3c-7.5,0,85.8,173.7,407.4,761.2c152.2,279.8,297,544.6,320.6,586.4l41.8,78.3l-345.2,2.1
		l-344.1,3.2l495.3,648.6c660.4,863,1095.7,1426.9,1101,1422.7C25665.5,26009.5,25633.3,25935.5,25592.6,25847.6z"/>
	<path class="st0" d="M19845.1,20098c-159.7-17.2-217.6-106.1-231.6-355.9l-7.5-127.6h5324h5325.1v110.4c0,194-44,300.2-144.7,350.6
		l-53.6,26.8l-5071,1.1C22197.3,20104.4,19883.7,20101.2,19845.1,20098z"/>
	<path class="st0" d="M14666.9,32215.8c-106.1-102.9-208-242.3-263.7-363.4c-33.2-71.8-36.5-87.9-36.5-175.8
		c0-77.2,7.5-126.5,39.7-244.4c32.2-123.3,39.7-166.2,39.7-260.5c1.1-104-1.1-116.9-30-171.5c-16.1-32.2-75-119-129.7-193
		c-129.7-173.7-172.6-246.6-200.5-336.6c-30-99.7-22.5-219.8,28.9-413.8c63.3-243.4,61.1-332.3-12.9-482.4
		c-32.2-66.5-60-100.8-173.7-211.2l-134-131.9l61.1-59c55.7-53.6,63.3-57.9,84.7-47.2c45,24.7,271.2,261.6,307.7,322.7
		c79.3,136.2,115.8,279.8,101.8,399.9c-3.2,35.4-21.4,122.2-38.6,193c-77.2,316.3-60,406.3,124.4,652.9
		c51.5,70.8,110.4,153.3,130.8,183.3c91.1,143.7,101.8,277.7,40.7,515.7c-49.3,194-56.8,299.1-26.8,381.7
		c27.9,80.4,76.1,152.2,178,265.9c45,50.4,94.3,107.2,109.4,126.5c27.9,34.3,27.9,36.5,9.6,72.9c-16.1,34.3-67.5,68.6-102.9,68.6
		C14767.7,32308,14719.5,32266.2,14666.9,32215.8z"/>
	<path class="st0" d="M13675.2,29637.4c-127.6-122.2-195.1-211.2-260.5-340.9c-50.4-100.8-50.4-100.8-49.3-209.1
		c0-90.1,6.4-132.9,40.7-258.4c54.7-202.6,57.9-301.3,10.7-402c-18.2-38.6-70.8-120.1-116.9-182.3
		c-188.7-253-220.8-320.6-228.4-488.9c-4.3-98.6-1.1-121.1,39.7-282c46.1-182.3,52.5-254.1,33.2-355.9
		c-21.4-111.5-63.3-178-202.6-323.8c-70.8-75-129.7-138.3-129.7-140.4c0-12.9,77.2-135.1,84.7-135.1c17.2,0,178,135.1,235.9,199.4
		c87.9,95.4,158.7,210.1,188.7,306.6c40.7,127.6,37.5,233.7-11.8,422.4c-47.2,183.3-55.7,285.2-32.2,376.3
		c24.7,97.6,56.8,155.5,178,316.3c210.1,278.7,224.1,346.3,142.6,689.4c-75,313.1-51.5,395.6,200.5,680.8
		c104,117.9,107.2,123.3,87.9,139.4c-11.8,8.6-40.7,32.2-64.3,51.5l-44,35.4L13675.2,29637.4z"/>
	<path class="st0" d="M14010.8,28206.2c-130.8-115.8-255.2-275.5-317.3-407.4c-26.8-57.9-28.9-74-28.9-191.9
		c1.1-108.3,6.4-151.2,35.4-269.1c67.5-277.7,46.1-372-147.9-626.1c-96.5-126.5-137.2-196.2-167.2-286.2
		c-24.7-74-27.9-95.4-22.5-185.5c3.2-57.9,20.4-164,39.7-246.6c45-190.8,50.4-264.8,26.8-359.1c-30-122.2-74-190.8-206.9-329.1
		l-122.2-125.4l34.3-59c18.2-33.2,37.5-62.2,42.9-65.4c28.9-18.2,249.8,170.5,327,278.7c145.8,205.8,166.2,357,90.1,674.3
		c-72.9,304.5-56.8,375.2,150.1,649.7c60,79.3,123.3,173.7,140.4,209.1c66.5,135.1,68.6,254.1,5.4,493.2
		c-79.3,304.5-57.9,378.4,190.8,654c51.5,56.8,93.3,111.5,93.3,121.1c0,20.4-72.9,130.8-86.8,130.8
		C14082.6,28266.2,14047.3,28239.4,14010.8,28206.2z"/>
	<path class="st0" d="M6964,25017.8c-5.4-8.6,11.8-435.3,26.8-680.8c307.7-4961.6,2590.2-9555.5,6352.1-12784.6
		c2781-2386.5,6227.8-3867,9847.1-4228.3c955.2-96.5,1980.1-116.9,2900-60c3726.6,232.6,7217.3,1584.5,10125.9,3920.6
		c2860.3,2297.5,4972.3,5420.5,6034.8,8923c451.3,1490.2,726.9,3102.6,779.4,4561.7l7.5,198.3l-3145.5-2.1l-3145.5-3.2l-18.2-246.6
		c-89-1238.3-360.2-2421.8-816.9-3567.9c-1532-3847.7-4958.4-6628.7-8990.5-7296.6c-644.3-106.1-1238.3-154.4-1919-154.4
		c-437.4,0-672.2,9.6-1075.3,47.2c-1107.5,100.8-2179.6,357-3207.7,765.5c-368.8,146.9-521,214.4-879.1,391.3
		c-948.8,468.5-1782.9,1032.4-2610.5,1764.7c-224.1,197.3-824.4,801.9-1020.6,1028.1c-916.6,1052.8-1612.4,2188.1-2115.2,3452.1
		c-472.8,1186.8-761.2,2479.7-826.6,3705.1l-7.5,136.2l-210.1,6.4c-266.9,8.6-1258.6,30-3254.9,70.8
		c-2366.1,47.2-2640.6,53.6-2737,56.8C7007.9,25023.1,6966.1,25022.1,6964,25017.8z M40245.9,24032.5c45-32.2,55.8-76.1,62.2-265.9
		c3.2-90.1,7.5-164,9.6-164s61.1,19.3,131.9,42.9c157.6,52.5,238,63.3,290.5,35.4c52.5-26.8,89-84.7,81.5-129.7
		c-12.9-85.8-82.6-131.9-276.6-184.4c-66.5-18.2-124.4-36.5-128.7-40.7c-4.3-4.3,19.3-41.8,52.5-82.6
		c128.6-160.8,170.5-242.3,151.2-297c-22.5-64.3-117.9-117.9-183.3-100.8c-33.2,7.5-124.4,98.6-203.7,204.8
		c-35.4,47.2-67.5,90.1-71.8,94.3c-4.3,5.4-46.1-40.7-93.3-101.8c-135.1-174.8-185.5-212.3-264.8-197.3
		c-62.2,11.8-124.4,78.3-124.4,131.9c0,38.6,52.5,128.7,131.9,230.5c46.1,56.8,82.6,107.2,82.6,112.6c0,5.4-41.8,20.4-93.3,34.3
		c-155.5,41.8-256.2,84.7-287.3,120.1c-49.3,59-27.9,163,42.9,209.1c39.7,25.7,130.8,15,294.8-37.5l134-41.8l6.4,142.6
		c8.6,178,16.1,223,44,258.4C40082.9,24065.8,40180.5,24078.6,40245.9,24032.5z M9317.2,23918.9c59-30,68.6-66.5,75-264.8l5.4-178
		l96.5,31.1c53.6,17.2,140.4,40.7,195.1,53.6c98.6,22.5,98.6,22.5,139.4,2.1c72.9-38.6,105.1-137.2,64.3-199.4
		c-23.6-36.5-124.4-83.6-270.2-125.4c-64.3-19.3-120.1-36.5-122.2-38.6s32.2-51.5,76.1-108.3c140.4-183.3,158.7-230.5,115.8-300.2
		c-33.2-55.7-120.1-89-175.8-67.5c-38.6,13.9-115.8,94.3-199.4,208c-37.5,50.4-71.8,92.2-75,92.2c-3.2,0-30-32.2-60-71.8
		c-81.5-112.6-183.3-214.4-226.2-229.4c-48.2-15-119,9.6-158.7,55.7c-54.7,66.5-30,136.2,111.5,315.2
		c41.8,53.6,76.1,99.7,76.1,102.9c0,3.2-54.7,21.4-120.1,40.7c-262.7,74-330.2,135.1-278.7,250.9c27.9,62.2,66.5,87.9,126.5,84.7
		c53.6-2.1,179-32.2,289.5-70.8l76.1-25.7l5.4,168.3c6.4,189.8,18.2,234.8,75,269.1C9201.4,23939.3,9273.3,23941.4,9317.2,23918.9z
		 M10943.6,22337.6c42.9-25.7,47.2-33.2,93.3-178c67.5-211.2,242.3-779.4,240.1-781.6c-10.7-7.5-525.3-169.4-598.2-187.6
		c-149-38.6-235.9-17.2-235.9,57.9c0,59,74,104,275.5,171.5l129.7,44l-69.7,225.1c-39.7,124.4-71.8,226.2-74,228.4
		c-1.1,2.1-120.1-33.2-264.8-79.3l-262.7-82.6l20.4-70.8c10.7-38.6,22.5-76.1,24.7-83.6c4.3-9.6,20.4-8.6,67.5,2.1
		c96.5,23.6,175.8,20.4,217.6-7.5c20.4-13.9,37.5-30,39.7-37.5c6.4-19.3-69.7-98.6-119-123.3c-38.6-20.4-269.1-97.6-525.3-175.8
		c-106.1-32.2-193-33.2-264.8-3.2c-28.9,12.9-52.5,26.8-52.5,31.1c0,20.4,120.1,115.8,188.7,150.1c40.7,20.4,76.1,37.5,78.3,39.7
		c10.7,7.5-46.1,164-57.9,159.7c-6.4-2.1-122.2-38.6-257.3-81.5c-136.2-42.9-250.9-81.5-255.2-85.8c-5.4-4.3,22.5-111.5,62.2-236.9
		c38.6-126.5,72.9-236.9,76.1-246.6c4.3-15,19.3-12.9,123.3,18.2c255.2,77.2,349.5,74,359.1-13.9c4.3-41.8-10.7-62.2-74-98.6
		c-85.8-49.3-689.4-246.6-704.4-229.4c-10.7,12.9-218.7,662.6-262.7,823.4c-44,161.9-42.9,193,10.7,239.1
		c38.6,34.3,149,66.5,229.4,66.5c40.7,0,44-3.2,76.1-60c19.3-32.2,39.7-56.8,47.2-54.7c6.4,2.1,239.1,75,515.7,161.9
		c277.7,86.8,587.5,184.4,689.4,217.6l184.4,59v35.4c0,20.4,5.4,49.3,11.8,66.5C10667,22325.8,10849.2,22395.5,10943.6,22337.6z
		 M38978.6,22159.6c53.6-13.9,166.2-50.4,250.9-81.5c117.9-42.9,161.9-64.3,194-94.3c49.3-47.2,53.6-84.7,13.9-115.8
		c-25.7-20.4-38.6-21.4-198.3-16.1c-169.4,6.4-170.5,6.4-229.4-22.5c-79.3-38.6-119-101.8-119-188.7
		c0-145.8,155.5-273.4,332.3-272.3c99.7,1.1,137.2,26.8,272.3,184.4c123.3,144.7,198.3,211.2,286.2,250.9
		c46.1,21.4,68.6,24.7,197.3,24.7c160.8-1.1,254.1-17.2,395.6-68.6c190.8-69.7,344.1-199.4,418.1-353.8
		c34.3-72.9,38.6-91.1,38.6-167.2c0-75-4.3-95.4-34.3-155.5c-33.2-67.5-106.1-154.4-167.2-201.6l-31.1-22.5l18.2-54.7
		c17.2-50.4,17.2-56.8,1.1-80.4c-16.1-24.7-24.7-26.8-90.1-26.8c-39.7,0-93.3,5.4-120.1,11.8c-78.3,17.2-344.1,106.1-397.7,132.9
		c-51.5,26.8-127.6,102.9-127.6,128.7c0,34.3,64.3,51.5,219.8,59c166.2,8.6,189.8,15,257.3,70.8c99.7,80.4,121.1,212.3,55.8,337.7
		c-56.8,110.4-144.7,159.7-282,159.7c-94.3,0-151.2-40.7-284.1-204.8c-100.8-124.4-152.2-168.3-251.9-215.5l-74-35.4l-171.5,1.1
		c-155.5,0-181.2,3.2-268,30c-249.8,76.1-452.4,227.3-539.3,403.1c-23.6,49.3-28.9,72.9-27.9,144.7c0,106.1,21.4,153.3,117.9,253
		c64.3,66.5,68.6,72.9,68.6,121.1c0,39.7,5.4,55.7,26.8,77.2c24.7,24.7,32.2,26.8,89,19.3
		C38852.1,22188.5,38924,22173.5,38978.6,22159.6z M38499.4,21167.9c26.8-5.4,82.6-30,124.4-54.7l77.2-42.9l4.3-57.9
		c3.2-32.2,7.5-60,9.6-62.2c2.1-2.1,212.3-90.1,465.3-194c254.1-104,511.4-212.3,573.6-240.1c158.7-69.7,289.5-158.7,397.7-269.1
		c154.4-154.4,218.7-320.6,176.9-448.1c-22.5-67.5-84.7-139.4-153.3-176.9c-112.6-61.1-315.2-84.7-494.2-56.8
		c-140.4,21.4-231.6,52.5-600.4,206.9c-164,67.5-390.2,160.8-505,208l-208,83.6l-44-23.6c-61.1-32.2-176.9-32.2-238,0
		c-47.2,24.7-94.3,75-106.1,110.4c-15,48.2,65.4,270.2,134,370.9l35.4,50.4l67.5-6.4c79.3-6.4,173.7-47.2,209.1-91.1
		c20.4-25.7,22.5-37.5,17.2-122.2c-3.2-52.5-2.1-94.3,3.2-94.3c5.4,0,199.4-79.3,431-175.8s481.4-198.3,555.3-227.3
		c132.9-51.5,135.1-51.5,262.7-52.5c117.9,0,132.9,2.1,176.9,26.8c66.5,37.5,96.5,85.8,96.5,154.4c0,75-39.7,155.5-109.4,221.9
		c-75,71.8-176.9,120.1-758,359.2l-466.4,190.8l-21.4-31.1c-12.9-17.2-39.7-49.3-60-72.9c-36.5-41.8-37.5-41.8-95.4-36.5
		c-86.8,9.6-193,66.5-218.7,117.9l-20.4,39.7l28.9,94.3c47.2,152.2,120.1,282,170.5,302.3
		C38446.9,21180.8,38442.6,21180.8,38499.4,21167.9z M11339.2,21137.9c26.8-16.1,46.1-49.3,99.7-170.5
		c76.1-173.7,129.7-324.8,129.7-368.8c0-54.7-27.9-90.1-96.5-124.4c-82.6-41.8-171.5-54.7-209.1-30c-15,9.6-44,51.5-65.4,93.3
		c-32.2,64.3-41.8,75-61.1,71.8c-27.9-6.4-1349.8-543.5-1360.5-554.3c-10.7-9.6,154.4-408.5,169.4-408.5c7.5,0,74,26.8,146.9,57.9
		c235.9,102.9,369.9,137.2,425.6,108.3c81.5-41.8,24.7-141.5-116.9-205.8c-67.5-30-705.4-291.6-730.1-299.1
		c-11.8-4.3-33.2,35.4-82.6,158.7c-36.5,90.1-122.2,300.2-190.8,467.4c-67.5,167.2-123.3,317.3-123.3,333.4
		c0,76.1,105.1,159.7,211.2,168.3c82.6,7.5,117.9-15,169.4-108.3c28.9-50.4,45-69.7,57.9-66.5c9.6,2.1,317.3,126.5,685.1,276.6
		l669,272.3l-6.4,32.2c-3.2,18.2-12.9,57.9-22.5,90.1c-8.6,32.2-12.9,69.7-9.6,83.6c15,57.9,155.5,140.4,240.1,141.5
		C11288.8,21158.3,11320.9,21148.6,11339.2,21137.9z M11814.1,20012.2c24.7-25.7,112.6-187.6,247.7-454.6
		c114.7-227.3,206.9-414.9,203.7-418.1c-19.3-16.1-525.3-270.2-593.9-297c-93.3-37.5-151.2-38.6-189.8-4.3
		c-60,53.6,23.6,146.9,218.7,246.6c68.6,34.3,125.4,66.5,125.4,71.8c0,7.5-201.6,414.9-210.1,424.5c-2.1,2.1-478.2-238-494.2-249.8
		c-1.1-1.1,15-36.5,37.5-78.3l39.7-76.1l80.4,31.1c209.1,78.3,306.6,6.4,168.3-124.4c-45-42.9-112.6-82.6-303.4-179
		c-294.8-149-353.8-171.5-433.1-167.2l-59,3.2l-3.2,45c-3.2,36.5,2.1,50.4,31.1,83.6c19.3,21.4,64.3,59,99.7,82.6
		c36.5,24.7,66.5,45,68.6,46.1c2.1,2.1-60,142.6-67.5,153.3c-2.1,2.1-116.9-53.6-255.2-122.2l-251.9-126.5l116.9-233.7
		c64.3-128.7,119-233.7,122.2-233.7c3.2,0,57.9,25.7,121.1,57.9c194,97.6,292.7,115.8,333.4,63.3c31.1-38.6,22.5-62.2-47.2-127.6
		c-47.2-45-112.6-83.6-350.6-203.7c-160.8-82.6-295.9-150.1-300.2-152.2c-9.6-4.3-379.5,722.6-431,846.9l-42.9,104l31.1,44
		c34.3,50.4,117.9,102.9,178,112.6c53.6,9.6,121.1-10.7,163-47.2l33.2-31.1l215.5,107.2c117.9,59,407.4,205.8,644.3,327l429.9,219.8
		v55.7c-1.1,129.7,108.3,228.4,270.2,241.2C11769.1,20054,11792.7,20035.8,11814.1,20012.2z M38307.5,19828.9
		c323.8-84.7,593.9-291.6,706.5-540.3c69.7-153.3,66.5-223-22.5-403.1c-28.9-60-52.5-112.6-52.5-117.9
		c0-7.5,323.8-182.3,337.7-182.3c2.1,0,26.8,42.9,53.6,96.5c52.5,100.8,107.2,160.8,149,160.8c44,0,130.8-31.1,175.8-64.3
		c47.2-33.2,77.2-80.4,77.2-119c0-62.2-217.6-489.9-265.9-522.1c-56.8-37.5-196.2,1.1-264.8,72.9c-28.9,30-32.2,41.8-35.4,115.8
		l-4.3,82.6l-647.5,332.3c-357,183.3-652.9,332.3-657.2,332.3c-5.4,0-26.8-22.5-48.2-50.4l-38.6-49.3l-66.5,15
		c-146.9,34.3-229.4,97.6-227.3,175.8c2.1,48.2,23.6,97.6,145.8,330.2c136.2,259.4,205.8,329.1,353.8,355.9
		C38056.7,19864.3,38212.1,19854.6,38307.5,19828.9z M37519.5,18960.5c62.2-31.1,127.6-104,151.2-171.5
		c16.1-47.2,28.9-62.2,78.3-96.5c80.4-54.7,544.6-345.2,887.7-556.4l280.9-172.6l55.8,18.2c46.1,15,64.3,16.1,114.7,5.4
		c107.2-22.5,194-105.1,194-183.3c0-30-20.4-71.8-84.7-178c-113.6-188.7-157.6-215.5-266.9-166.2c-71.8,32.2-107.2,61.1-137.2,112.6
		l-26.8,47.2l22.5,77.2c12.9,41.8,19.3,80.4,13.9,85.8c-10.7,10.7-793.3,498.5-866.2,540.3c-45,25.7-19.3-5.4,171.5-199.4
		c124.4-126.5,279.8-285.2,345.2-352.7l120.1-123.3l-48.2-77.2l-48.2-76.1l-189.8,63.3c-420.3,141.5-746.2,243.4-721.5,226.2
		c26.8-19.3,779.4-488.9,854.5-533.9l44-25.7l42.9,41.8c90.1,90.1,219.8,78.3,317.3-30c63.3-69.7,62.2-85.8-4.3-215.5
		c-41.8-82.6-76.1-131.9-127.6-184.4l-69.7-71.8l-48.2,10.7c-26.8,5.4-69.7,23.6-96.5,39.7c-49.3,30-113.6,113.6-123.3,158.7
		c-3.2,13.9-7.5,37.5-10.7,51.5c-3.2,17.2-28.9,40.7-77.2,70.8c-306.6,194-731.2,458.9-917.7,572.5l-223,136.2l-62.2-7.5
		c-75-8.6-159.7,12.9-215.5,54.7c-44,32.2-85.8,96.5-85.8,131.9c0,27.9,47.2,124.4,101.8,210.1l36.5,57.9l550-181.2
		c302.3-99.7,554.3-180.1,558.6-178c5.4,1.1-174.8,188.7-398.8,417c-225.1,227.3-408.5,417-408.5,421.3
		c0,15,115.8,183.3,150.1,217.6C37394.1,18989.4,37449.9,18993.7,37519.5,18960.5z M12378,18703.2c131.9-19.3,206.9-51.5,275.5-119
		c75-74,106.1-159.7,107.2-295.9l1.1-87.9l44-23.6c70.8-36.5,81.5-50.4,69.7-82.6c-19.3-51.5-97.6-119-243.4-213.3
		c-250.9-159.7-364.5-213.3-428.8-201.6c-41.8,7.5-71.8,47.2-61.1,81.5c4.3,12.9,55.7,71.8,114.7,130.8
		c121.1,123.3,149,168.3,155.5,259.4c7.5,83.6-9.6,141.5-55.7,195.1c-54.7,64.3-113.6,83.6-246.6,82.6
		c-211.2-1.1-394.5-76.1-739.7-302.3c-176.9-115.8-283-220.8-343.1-339.9c-40.7-79.3-42.9-89-42.9-181.2
		c0-108.3,19.3-161.9,83.6-229.4c63.3-66.5,91.1-76.1,249.8-93.3c93.3-9.6,150.1-20.4,156.5-28.9c22.5-37.5-1.1-93.3-66.5-152.2
		c-87.9-79.3-228.4-115.8-361.3-93.3c-313,53.6-489.9,336.6-390.2,626.1c67.5,196.2,238,407.4,466.4,577.9
		c206.9,154.4,563.9,350.6,765.5,420.3C12085.3,18701,12238.7,18722.5,12378,18703.2z M13338.6,17493.9
		c170.5-231.6,309.8-424.5,309.8-429.9c0-10.7-580-439.6-661.5-488.9c-113.6-68.6-198.3-71.8-214.4-7.5
		c-16.1,66.5,79.3,167.2,329.1,345.2c59,42.9,109.4,80.4,111.5,84.7c8.6,13.9-123.3,184.4-136.2,175.8
		c-10.7-6.4-866.2-634.7-1103.2-810.5c-46.1-34.3-83.6-66.5-83.6-70.8c0-5.4,16.1-36.5,36.5-68.6c57.9-97.6,65.4-120.1,48.2-159.7
		c-33.2-81.5-123.3-151.2-213.3-165.1c-38.6-6.4-48.2-3.2-76.1,23.6c-97.6,92.2-352.7,447.1-352.7,488.9c0,30,30,96.5,56.8,124.4
		c30,32.2,110.4,74,167.2,86.8l42.9,9.6l80.4-83.6l80.4-83.6l582.1,428.8c320.6,235.9,590.7,435.3,601.4,442.8
		c18.2,12.9,15,20.4-46.1,102.9c-36.5,49.3-67.5,91.1-68.6,92.2s-64.3-46.1-141.5-105.1c-151.2-119-215.5-159.7-303.4-191.9
		l-56.8-22.5l-36.5,27.9c-41.8,32.2-44,45-16.1,99.7c26.8,52.5,82.6,102.9,247.7,225.1c74,53.6,211.2,156.5,305.5,226.2
		c94.3,70.8,178,127.6,186.5,126.5C13022.3,17916.3,13168.2,17725.4,13338.6,17493.9z M37282.6,17180.8
		c459.9-208,850.2-384.9,866.2-393.5c28.9-15,33.2-13.9,79.3,22.5l48.2,37.5l82.6-41.8c86.8-42.9,156.5-107.2,168.3-155.5
		c8.6-35.4-45-145.8-110.4-228.4c-66.5-82.6-144.7-163-158.7-163c-45,0-130.8,38.6-173.7,78.3c-76.1,69.7-97.6,145.8-63.2,226.2
		l15,36.4l-86.8,39.7c-48.2,21.4-93.3,41.8-99.7,45c-11.8,4.3-304.5-379.5-304.5-398.8c0-8.6,138.3-170.5,149-173.7
		c3.2-1.1,24.7,21.4,47.2,49.3c40.7,51.5,42.9,52.5,79.3,41.8c140.4-38.6,239.1-125.4,239.1-209.1c0-51.5-120.1-229.4-218.7-323.8
		c-34.3-33.2-41.8-35.4-87.9-30c-60,6.4-116.9,44-188.7,126.5l-52.5,60l22.5,51.5c19.3,44,20.4,53.6,7.5,68.6
		c-8.6,9.6-218.7,250.9-468.5,537.1c-249.8,286.2-468.5,536-485.7,556.4l-32.2,37.5l-74-78.3l-72.9-79.3l-54.7,6.4
		c-95.4,11.8-178,75-217.6,168.3c-15,36.5-13.9,39.7,17.2,96.5c18.2,32.2,60,95.4,93.3,139.4s86.8,114.7,119,157.6
		c32.2,42.9,64.3,75,69.7,72.9C36442.1,17560.3,36822.7,17388.8,37282.6,17180.8z M13752.4,16911.7c32.2-15,82.6-64.3,171.5-167.2
		c181.2-209.1,220.8-260.5,254.1-335.6c26.8-60,30-76.1,25.7-149c-11.8-187.6-156.5-423.5-351.6-571.4
		c-138.3-105.1-361.3-190.8-498.5-190.8h-53.6l-24.7-66.5c-13.9-37.5-76.1-170.5-138.3-297l-113.6-229.4l27.9-50.4l27.9-49.3
		l-46.1-59c-85.8-109.4-170.5-161.9-233.7-144.7c-12.9,3.2-52.5,33.2-85.8,65.4l-61.1,60l97.6,178
		c144.7,264.8,242.3,492.1,276.6,648.6l13.9,61.1l-67.5,75c-36.5,41.8-69.7,76.1-75,76.1c-13.9,0-343.1-289.5-343.1-302.3
		c0-6.4,15-41.8,33.2-78.3c40.7-83.6,37.5-110.4-27.9-184.4c-52.5-60-122.2-99.7-174.8-99.7c-28.9,0-50.4,15-123.3,84.7
		c-96.5,93.3-211.2,242.3-211.2,276.6c0,10.7,12.9,46.1,27.9,76.1c48.2,97.6,161.9,153.3,259.4,128.7c24.7-6.4,48.2-15,51.5-20.4
		c3.2-5.4,12.9-9.6,21.4-9.6s259.4,213.3,557.5,472.8c410.6,359.2,539.3,478.2,533.9,491c-17.2,40.7-17.2,130.8,0,176.9
		c20.4,54.7,56.8,90.1,129.7,128.7C13696.7,16939.6,13694.5,16939.6,13752.4,16911.7z M35996.1,16839.9
		c82.6-39.7,190.8-127.6,366.7-299.1c121.1-117.9,142.6-143.7,149-179c5.4-30,2.1-51.5-8.6-69.7c-22.5-41.8-67.5-32.2-226.2,50.4
		c-131.9,68.6-140.4,71.8-209.1,70.8c-119-3.2-199.4-48.2-243.4-136.2c-31.1-64.3-34.3-121.1-9.6-214.4
		c47.2-182.3,165.1-342,411.7-557.5c282-246.6,425.6-322.7,616.4-323.8c111.5,0,173.7,23.6,242.3,92.2
		c90.1,90.1,106.1,161.9,74,317.3c-12.9,61.1-21.4,130.8-19.3,155.5l3.2,46.1l46.1-3.2c179-10.7,321.6-226.2,310.9-467.4
		c-3.2-81.5-9.6-109.4-37.5-170.5c-64.3-135.1-188.7-235.9-330.2-264.8c-191.9-39.7-473.9,41.8-722.6,208
		c-189.8,126.5-514.6,420.3-649.7,585.4c-292.7,359.1-366.7,712.9-190.8,902.7c52.5,55.7,114.7,90.1,211.2,115.8l63.3,18.2
		l18.2,63.3C35890,16884.9,35895.3,16887.1,35996.1,16839.9z M14690.5,15882.5c55.7-27.9,462.1-427.8,498.5-488.9
		c31.1-53.6,27.9-84.7-18.2-157.6c-40.7-63.3-117.9-113.6-175.8-113.6c-46.1,0-110.4,42.9-194,127.6c-22.5,24.7-45,44-48.2,44
		c-6.4,0-717.2-730.1-958.4-984.2l-84.7-87.9l86.8-90.1c123.3-128.7,127.6-178,24.7-288.4c-78.3-84.7-143.7-104-210.1-62.2
		c-54.7,33.2-495.3,470.6-509.2,505c-19.3,46.1-1.1,101.8,53.6,164c79.3,90.1,144.7,112.6,217.6,75c19.3-9.6,67.5-49.3,107.2-87.9
		l72.9-69.7l200.5,202.6c110.4,112.6,346.3,353.8,523.2,536l322.7,332.3l-90.1,96.5c-49.3,53.6-92.2,108.3-96.5,121.1
		c-21.4,83.6,115.8,246.6,209.1,248.7C14634.8,15905,14665.9,15895.4,14690.5,15882.5z M34326.9,15118.1c16.1-8.6,44-31.1,62.2-51.5
		c69.7-72.9,91.1-154.4,64.3-235.9c-15-41.8-16.1-66.5-6.4-150.1c13.9-125.4,63.3-510.3,69.7-539.3c3.2-16.1,24.7-27.9,86.8-47.2
		c169.4-52.5,384.9-171.5,607.9-336.6l138.3-101.8l44,20.4c108.3,48.2,219.8,1.1,282-121.1c31.1-62.2,32.2-97.6,4.3-142.6
		c-30-48.2-168.3-158.7-185.5-149c-6.4,4.3-99.7,74-205.8,154.4c-215.5,164-307.7,226.2-418.1,282c-89,44-239.1,93.3-286.2,93.3
		h-33.2l6.4-63.3c12.9-124.4,72.9-236.9,212.3-403.1c37.5-44,74-80.4,80.4-80.4c6.4,0,39.7,11.8,72.9,26.8
		c77.2,34.3,98.6,33.2,157.6-4.3c95.4-60,151.2-189.8,110.4-253c-31.1-48.2-196.2-186.5-280.9-235.9
		c-92.2-54.7-109.4-52.5-188.7,17.2c-90.1,79.3-114.7,176.9-67.5,269.1l24.7,48.2l-234.8,288.4
		c-128.6,158.7-334.5,410.6-455.6,560.7l-221.9,271.2l-63.2-6.4c-34.3-3.2-84.7-6.4-109.4-6.4h-47.2v-79.3v-80.4l472.8-795.5
		c259.4-437.4,468.5-798.7,463.1-803c-4.3-5.4-47.2-35.4-93.3-66.5l-84.7-59l-380.6,384.9c-209.1,211.2-382.7,382.7-384.9,380.6
		c-2.1-2.1,81.5-191.9,185.5-421.3c259.4-573.6,255.2-561.8,249.8-566.1c-26.8-23.6-178-124.4-186.5-123.3
		c-5.4,0-204.8,249.8-442.8,554.3c-236.9,304.5-495.3,633.6-573.6,730.1c-132.9,166.2-144.7,176.9-199.4,197.3
		c-79.3,28.9-151.2,101.8-182.3,183.3c-12.9,34.3-20.4,71.8-17.2,82.6c20.4,63.3,297,256.2,368.8,256.2
		c71.8,0,145.8-72.9,188.7-184.4c24.7-66.5,11.8-99.7-65.4-166.2c-32.2-26.8-57.9-53.6-57.9-59s126.5-170.5,279.8-367.7
		c253-323.8,363.4-458.9,349.5-428.8c-16.1,34.3-307.7,695.8-325.9,739.7l-22.5,52.5l84.7,56.8c46.1,31.1,87.9,56.8,91.1,56.8
		c4.3,0,146.9-141.5,317.3-313c239.1-243.4,302.3-302.3,278.7-260.5c-90.1,155.5-488.9,826.6-495.3,834.1
		c-4.3,5.4-39.7-6.4-79.3-24.7c-101.8-49.3-135.1-47.2-195.1,11.8c-56.8,54.7-100.8,137.2-100.8,191.9c0,50.4,63.3,112.6,211.2,208
		c91.1,59,117.9,70.8,155.5,70.8c44,0,47.2,3.2,78.3,54.7c40.7,68.6,147.9,171.5,256.2,243.4c89,59,124.4,67.5,176.9,40.7
		c41.8-22.5,107.2-97.6,131.9-153.3c26.8-60,20.4-87.9-36.5-160.8c-23.6-31.1-40.7-60-38.6-65.4c5.4-12.9,332.3-410.6,335.6-407.4
		c4.3,6.4-48.2,450.3-64.3,541.4c-9.6,53.6-23.6,105.1-30,112.6c-7.5,8.6-45,42.9-84.7,77.2c-108.3,93.3-139.4,174.8-94.3,247.7
		c19.3,31.1,153.3,143.7,209.1,174.8C34225,15137.4,34292.6,15136.3,34326.9,15118.1z M15824.8,14923
		c104-47.2,164-122.2,209.1-261.6c21.4-66.5,30-75,76.1-75c18.2,0,49.3-3.2,68.6-6.4c32.2-7.5,33.2-9.6,26.8-46.1
		c-10.7-62.2-75-183.3-141.5-264.8c-266.9-328.1-329.1-380.6-414.9-347.4c-28.9,10.7-30,13.9-23.6,56.8
		c3.2,24.7,34.3,102.9,68.6,172.6c57.9,122.2,61.1,130.8,60,209.1c0,60-6.4,92.2-22.5,124.4c-25.7,49.3-70.8,97.6-110.4,117.9
		c-124.4,64.3-344.1-12.9-542.5-188.7c-119-105.1-343.1-377.4-421.3-511.4c-97.6-168.3-131.9-348.4-87.9-464.2
		c47.2-125.4,164-213.3,282-213.3c31.1,0,100.8,11.8,153.3,26.8c152.2,41.8,166.2,37.5,166.2-49.3c0-57.9-30-112.6-97.6-176.9
		c-226.2-212.3-620.7-160.8-752.6,99.7c-51.5,100.8-64.3,167.2-57.9,302.3c6.4,150.1,39.7,262.7,131.9,440.6
		c127.6,249.8,447.1,639,674.3,822.3C15359.5,14924.1,15632.9,15008.8,15824.8,14923z M16573.1,14279.8
		c83.6-45,357-240.1,351.6-249.8c-2.1-3.2-161.9-394.5-354.9-869.5l-351.6-863l18.2-97.6l19.3-97.6l-26.8-53.6
		c-27.9-54.7-107.2-135.1-144.7-146.9c-42.9-13.9-228.4,92.2-331.3,189.8c-64.3,60-69.7,84.7-39.7,171.5
		c21.4,62.2,104,142.6,158.7,152.2c38.6,7.5,87.9,3.2,129.7-10.7c20.4-6.4,26.8,4.3,62.2,93.3c30,74,36.5,100.8,25.7,107.2
		c-6.4,3.2-99.7,67.5-205.8,140.4l-191.9,134l-83.6-76.1c-46.1-40.7-83.6-78.3-83.6-83.6c0-4.3,22.5-27.9,49.3-51.5
		c45-39.7,49.3-47.2,42.9-78.3c-9.6-52.5-57.9-149-90.1-183.3c-34.3-36.5-78.3-61.1-109.4-61.1c-48.2,0-208,96.5-309.8,188.7
		l-56.8,51.5l4.3,55.7c6.4,71.8,51.5,146.9,114.7,191.9c38.6,26.8,56.8,32.2,115.8,34.3l69.7,1.1l136.2,126.5
		c74,69.7,301.3,283,503.9,474.9c202.6,191.9,386,364.5,407.4,383.8l38.6,34.3l-71.8,65.4c-95.4,86.8-106.1,117.9-67.5,200.5
		c15,34.3,46.1,80.4,67.5,102.9C16439.1,14330.1,16475.5,14334.4,16573.1,14279.8z M17508,13667.6
		c77.2-31.1,369.9-202.6,409.5-240.1c36.5-34.3,40.7-44,40.7-91.1c0-69.7-40.7-152.2-99.7-203.7c-53.6-45-84.7-45-188.7,1.1
		c-39.7,18.2-69.7,25.7-75,20.4c-23.6-24.7-730.1-1282.2-725.8-1289.7c3.2-5.4,89-55.7,189.8-113.6
		c154.4-87.9,185.5-101.8,197.3-90.1c8.6,8.6,49.3,80.4,91.1,159.7c104,196.2,165.1,272.3,256.2,321.6
		c23.6,11.8,28.9,10.7,52.5-17.2c37.5-42.9,27.9-113.6-27.9-226.2c-47.2-92.2-373.1-667.9-387-681.8
		c-8.6-8.6-894.1,486.7-926.3,516.7c-12.9,12.9,20.4,142.6,51.5,203.7c27.9,56.8,67.5,94.3,110.4,105.1c16.1,3.2,59-6.4,117.9-28.9
		c50.4-19.3,94.3-31.1,95.4-25.7c2.1,5.4,165.1,294.8,363.4,642.2l359.1,632.5l-46.1,37.5c-25.7,20.4-64.3,55.7-86.8,78.3
		c-35.4,36.5-39.7,46.1-34.3,76.1c12.9,64.3,69.7,166.2,115.8,204.8C17409.3,13699.8,17426.5,13700.8,17508,13667.6z
		 M32061.5,13530.4c429.9-109.4,928.4-758,1068.9-1390.5c18.2-85.8,24.7-142.6,23.6-255.2c0-264.8-65.4-406.3-217.6-473.9
		c-64.3-28.9-179-31.1-253-4.3c-163,59-286.2,138.3-432.1,279.8c-179,172.6-319.5,372-448.1,632.5
		c-128.7,262.7-183.3,455.6-194,680.8c-7.5,168.3,7.5,265.9,57.9,364.5C31744.2,13520.7,31879.3,13576.5,32061.5,13530.4z
		 M31208.2,13074.7c86.8-44,124.4-128.7,114.7-254.1c-4.3-46.1-7.5-95.4-8.6-110.4c0-15,80.4-202.6,178-418.1
		c98.6-215.5,232.6-508.2,298-651.8l119-260.5l44,6.4c24.7,4.3,51.5,8.6,60,10.7c34.3,8.6,138.3-159.7,154.4-250.9
		c6.4-33.2,2.1-40.7-41.8-82.5c-56.8-54.7-114.7-85.8-244.4-131.9c-107.2-37.5-121.1-35.4-186.5,33.2c-84.7,87.9-89,235.9-8.6,319.5
		l26.8,27.9l-109.4,234.8c-59,129.7-109.4,236.9-110.4,239.1c-1.1,1.1-91.1-38.6-199.4-87.9c-125.4-57.9-196.2-96.5-194-105.1
		c2.1-7.5,49.3-115.8,105.1-240.1l102.9-225.1l50.4-1.1c126.5-2.1,226.2-108.3,226.2-242.3c0-51.5-4.3-62.2-33.2-91.1
		c-34.3-34.3-258.4-139.4-315.2-149c-77.2-12.9-130.8,44-179,187.6l-31.1,93.3l48.2,46.1c26.8,25.7,49.3,49.3,49.3,51.5
		c0,7.5-334.5,743-488.9,1074.2c-115.8,249.8-116.9,250.9-165.1,275.5c-137.2,69.7-217.6,236.9-155.5,323.8
		c23.6,31.1,221.9,136.2,275.5,144.7c36.5,5.4,98.6-13.9,128.7-41.8c11.8-10.7,33.2-42.9,47.2-72.9c42.9-90.1,31.1-205.8-26.8-256.2
		c-11.8-11.8-22.5-26.8-22.5-34.3c0-13.9,200.5-455.6,212.3-467.4c9.7-9.6,398.8,164,398.8,176.9c0,4.3-48.2,113.6-108.3,243.4
		l-108.3,234.8l-45-1.1c-57.9-1.1-89,8.6-131.9,40.7c-72.9,54.7-125.4,191.9-95.4,248.7c19.3,37.5,66.5,80.4,113.6,104
		c27.9,13.9,180.1,70.8,212.3,79.3C31165.3,13096.2,31185.6,13086.5,31208.2,13074.7z M30086.8,12549.4
		c51.5-56.8,83.6-121.1,147.9-303.4c84.7-234.8,97.6-284.1,92.2-353.8c-3.2-52.5-8.6-66.5-39.7-98.6c-27.9-28.9-39.7-34.3-50.4-24.7
		c-7.5,6.4-48.2,66.5-89,132.9c-87.9,140.4-154.4,206.9-235.9,232.6c-106.1,34.3-184.4,17.2-257.3-56.8
		c-64.3-63.3-85.8-135.1-93.3-300.2c-4.3-99.7-1.1-144.7,18.2-235.9c39.7-193,156.5-513.5,238-651.8
		c48.2-82.6,183.3-217.6,249.8-248.7c101.8-49.3,230.5-39.7,330.2,23.6c70.8,45,99.7,92.2,135.1,221.9
		c46.1,163,72.9,183.3,147.9,106.1c55.7-57.9,74-95.4,90.1-181.2c32.2-175.8-78.3-418.1-230.5-506
		c-116.9-67.5-275.5-84.7-397.7-40.7c-182.3,64.3-377.4,265.9-515.7,529.6c-98.6,189.8-223,539.3-271.2,763.3
		c-98.6,455.6-9.7,823.4,227.3,933.8c67.5,31.1,167.2,34.3,271.2,8.6l70.8-18.2l48.2,55.7c25.7,30,53.6,54.7,62.2,54.7
		C30042.8,12592.3,30066.4,12573,30086.8,12549.4z M20120.6,12486.1c65.4-31.1,144.7-99.7,197.3-172.6
		c27.9-36.5,27.9-36.5,70.8-23.6c72.9,21.4,96.5,17.2,109.4-20.4c17.2-48.2,15-79.3-10.7-175.8c-53.6-206.9-176.9-505-228.4-551.1
		c-27.9-26.8-92.2-36.5-110.4-18.2c-8.6,8.6-8.6,109.4-2.1,312c4.3,99.7,2.1,111.5-24.7,161.9c-50.4,95.4-127.6,143.7-230.5,143.7
		c-144.7,0-322.7-163-436.3-399.9c-62.2-128.7-152.2-373.1-183.3-495.3c-65.4-255.2-36.5-469.6,75-572.5
		c79.3-72.9,126.5-92.2,230.5-92.2h92.2l110.4,72.9c114.7,74,156.5,92.2,173.7,75c16.1-16.1,30-113.6,21.4-159.7
		c-27.9-151.2-180.1-297-364.5-351.6c-193-56.8-426.7,48.2-529.6,238c-66.5,123.3-97.6,355.9-72.9,555.3
		c26.8,209.1,116.9,503.9,242.3,789.1c159.7,364.5,354.9,588.6,602.5,690.4C19943.7,12529,20033.8,12526.9,20120.6,12486.1z
		 M21016.9,12146.3c83.6-21.4,189.8-52.5,235.9-70.8c75-28.9,86.8-36.5,100.8-71.8c33.2-80.4-11.8-243.4-80.4-288.4
		c-23.6-16.1-83.6-15-184.4,3.2l-37.5,7.5l-186.5-711.9c-102.9-390.2-188.7-716.2-190.8-722.6c-3.2-9.6,282-94.3,398.8-117.9
		l32.2-6.4l46.1,186.5c60,243.4,119,370.9,182.3,389.2c35.4,10.7,87.9-45,87.9-94.3c0-67.5-32.2-225.1-87.9-431
		c-30-111.5-70.8-263.7-90.1-336.6c-19.3-72.9-37.5-134-39.7-137.2c-7.5-7.5-927.4,235.9-979.9,259.4c-75,33.2-89,156.5-31.1,271.2
		c41.8,82.6,61.1,91.1,180.1,82.6l99.7-7.5l185.5,706.5c101.8,388.1,185.5,710.8,184.4,717.2c0,6.4-20.4,18.2-45,25.7
		c-132.9,39.7-164,75-155.5,181.2c7.5,89,41.8,167.2,86.8,196.2C20770.3,12202,20810,12197.8,21016.9,12146.3z M28590.1,12069.1
		c36.5-23.6,77.2-116.9,84.7-197.3c6.4-68.6,6.4-72.9-23.6-102.9c-17.2-16.1-66.5-45-108.3-62.2c-55.7-22.5-76.1-35.4-72.9-47.2
		c2.1-8.6,86.8-332.3,188.7-718.3c100.8-386,185.5-703.3,186.5-705.4c2.1-2.1,96.5,20.4,209.1,50.4c113.6,30,208,54.7,210.1,54.7
		c12.9,0,0,63.3-37.5,193c-52.5,179-69.7,276.6-62.2,346.3c11.8,95.4,63.3,119,128.7,61.1c30-25.7,45-54.7,76.1-150.1
		c28.9-87.9,156.5-560.7,201.6-749.4c2.1-11.8-49.3-30-205.8-72.9c-373.1-102.9-748.3-196.2-785.8-196.2
		c-69.7,0-124.4,68.6-145.8,184.4c-20.4,113.6,8.6,158.7,132.9,202.6c69.7,24.7,70.8,24.7,63.3,56.8c-4.3,18.2-87.9,339.9-186.5,714
		l-179,680.8l-101.8-3.2c-61.1-2.1-111.5,1.1-124.4,7.5c-11.8,6.4-36.5,41.8-54.7,78.3c-26.8,51.5-33.2,79.3-33.2,130.8
		c0,98.6,11.8,113.6,123.3,155.5c121.1,45,431,119,466.4,110.4C28554.7,12087.3,28577.3,12077.7,28590.1,12069.1z M22110.4,11890.1
		c191.9-33.2,236.9-68.6,235.9-186.5c-1.1-66.5-34.3-158.7-67.5-188.7c-10.7-9.6-53.6-22.5-98.6-28.9c-42.9-5.4-80.4-12.9-82.6-15
		c-6.4-5.4-143.7-783.7-178-1011c-26.8-167.2-27.9-197.3-17.2-272.3c36.5-260.5,200.5-353.8,363.4-205.8
		c100.8,90.1,134,176.9,188.7,482.4c66.5,378.4,156.5,902.7,156.5,914.5c0,7.5-31.1,26.8-68.6,44c-87.9,39.7-102.9,62.2-102.9,151.2
		c0,94.3,17.2,147.9,60,190.8l37.5,37.5l92.2-7.5c202.6-17.2,322.7-56.8,348.4-117.9c41.8-98.6-6.4-238-105.1-304.5
		c-41.8-28.9-53.6-44-60-75c-4.3-22.5-44-251.9-89-510.3c-113.6-662.5-125.4-709.7-214.4-890.9c-80.4-163-225.1-316.3-336.6-353.8
		c-104-35.4-224.1-6.4-305.5,75c-57.9,57.9-125.4,194-158.7,316.3c-20.4,76.1-23.6,117.9-23.6,262.7c0,168.3,1.1,181.2,98.6,731.2
		c54.7,306.6,98.6,567.1,98.6,578.9c-1.1,10.7-20.4,33.2-45,49.3l-42.9,30l4.3,104c4.3,102.9,19.3,151.2,60,198.3
		C21878.9,11911.5,21981.8,11912.6,22110.4,11890.1z M27819.3,11884.7c47.2-28.9,65.4-78.3,74-196.2l5.4-98.6l-49.3-36.5
		c-37.5-27.9-47.2-41.8-44-59c7.5-32.2,126.5-723.7,165.1-955.2c17.2-106.1,34.3-229.4,37.5-273.4c15-183.3-35.4-427.8-116.9-562.8
		c-50.4-83.6-69.7-102.9-137.2-140.4c-48.2-26.8-67.5-31.1-141.5-31.1s-92.2,4.3-136.2,28.9c-171.5,100.8-324.8,324.8-388.1,566.1
		c-15,55.7-68.6,343.1-119,637.9c-50.4,294.8-94.3,544.6-97.6,554.3s-21.4,27.9-41.8,40.7c-111.5,68.6-159.7,208-113.6,324.8
		c20.4,51.5,154.4,94.3,344.1,109.4l92.2,7.5l38.6-42.9c48.2-53.6,66.5-114.7,59-203.7c-6.4-82.6-19.3-98.6-110.4-137.2
		c-51.5-21.4-67.5-33.2-63.3-46.1c2.1-9.6,46.1-258.4,96.5-553.2c51.5-294.8,99.7-562.8,109.4-595c70.8-248.7,249.8-378.4,387-279.8
		c89,65.4,139.4,233.7,119,401c-8.6,64.3-169.4,1014.2-187.6,1103.2c-5.4,26.8-10.7,28.9-77.2,36.5
		c-105.1,10.7-117.9,18.2-147.9,83.6c-50.4,109.4-42.9,220.8,17.2,265.9c34.3,24.7,240.1,69.7,327,71.8
		C27766.8,11906.1,27793.6,11900.8,27819.3,11884.7z M23457,11696c317.3-25.7,389.2-52.5,468.5-173.7
		c96.5-146.9,140.4-370.9,112.6-571.4c-13.9-92.2-69.7-277.7-107.2-349.5l-20.4-40.7l36.4-71.8c115.8-230.5,131.9-516.7,41.8-780.5
		c-47.2-139.4-125.4-233.7-234.8-285.2c-42.9-20.4-72.9-25.7-141.5-25.7c-189.8,0-658.3,47.2-704.4,71.8
		c-47.2,23.6-64.3,78.3-57.9,179c7.5,114.7,28.9,140.4,158.7,194c23.6,9.6,26.8,19.3,33.2,96.5
		c21.4,236.9,115.8,1333.7,115.8,1348.7c0,8.6-13.9,21.4-31.1,28.9c-40.7,16.1-81.5,60-101.8,109.4
		c-36.5,86.8-10.7,214.4,52.5,263.7C23115,11718.5,23177.2,11719.6,23457,11696z M26361.3,11649.9
		c81.5-36.5,152.2-120.1,221.9-263.7c89-181.2,107.2-262.7,107.2-482.4c0-158.7-3.2-193-24.7-268c-38.6-134-102.9-255.2-178-332.3
		c-57.9-60-74-70.8-140.4-90.1c-40.7-11.8-120.1-26.8-174.8-32.2c-54.7-5.4-101.8-10.7-104-13.9c-2.1-2.1,2.1-83.6,10.7-181.2
		c8.6-96.5,16.1-181.2,16.1-188.7c0-8.6,34.3-10.7,126.5-6.4c157.6,6.4,176.9,0,211.2-74c54.7-116.9,22.5-272.3-59-289.5
		c-199.4-41.8-539.3-59-574.6-28.9c-32.2,25.7-68.6,119-68.6,173.7c0,87.9,49.3,172.6,119,200.5c23.6,9.6,31.1,20.4,31.1,41.8
		c0,25.7-81.5,990.6-108.3,1289.7l-12.9,135.1l-36.5,7.5c-49.3,8.6-115.8,71.8-138.3,129.7c-21.4,57.9-16.1,172.6,11.8,214.4
		c26.8,41.8,75,55.7,236.9,68.6c82.6,6.4,154.4,13.9,159.7,16.1c6.4,3.2,78.3,3.2,160.8,2.1
		C26285.1,11675.7,26311.9,11671.4,26361.3,11649.9z"/>
	<path class="st0" d="M38149.9,19578c-46.1-20.4-93.3-81.5-154.4-201.6l-53.6-104l66.5-36.5c89-48.2,573.6-297,580-297
		c8.6,0,91.1,187.6,104,235.9c16.1,60,7.5,130.8-23.6,181.2c-55.8,93.3-168.3,184.4-270.2,218.7
		C38334.3,19596.2,38197.1,19598.4,38149.9,19578z"/>
	<path class="st0" d="M36795.9,17142.2c33.2-47.2,474.9-551.1,482.4-551.1c7.5,0,179,229.4,187.6,250.9
		c3.2,7.5-131.9,74-324.8,160.8C36739.1,17183,36776.6,17168,36795.9,17142.2z"/>
	<path class="st0" d="M13428.7,16236.3c-129.7-112.6-236.9-209.1-239.1-213.3c-4.3-10.7,161.9-167.2,198.3-185.5
		c17.2-8.6,57.9-21.4,92.2-27.9c197.3-36.5,394.5,117.9,396.7,308.8c0,56.8-4.3,71.8-37.5,121.1c-39.7,60-158.7,201.6-169.4,201.6
		C13666.7,16441.1,13558.4,16348.9,13428.7,16236.3z"/>
	<path class="st0" d="M16262.2,13419.9c-149-140.4-271.2-260.5-271.2-267c0-17.2,253-188.7,262.7-178
		c4.3,4.3,56.8,129.7,115.8,276.6c59,147.9,122.2,303.4,140.4,346.3c17.2,41.8,30,77.2,27.9,77.2S16411.2,13560.4,16262.2,13419.9z"
		/>
	<path class="st0" d="M31981.1,13169.1c-44-30-81.5-82.6-96.5-136.2c-17.2-63.3-11.8-243.4,9.6-344.1
		c48.2-218.7,191.9-493.2,358.1-687.2c146.9-171.5,368.8-290.5,478.2-257.3c100.8,30,147.9,104,157.6,245.5
		c17.2,232.6-64.3,487.8-239.1,752.6c-186.5,282-373.1,432.1-555.3,446C32027.2,13193.7,32014.4,13191.6,31981.1,13169.1z"/>
	<path class="st0" d="M23369.1,11261.8c-13.9-100.8-42.9-503.9-36.5-509.2c3.2-3.2,77.2-7.5,165.1-8.6c157.6-1.1,158.7-1.1,203.7,30
		c124.4,83.6,170.5,289.5,94.3,420.3c-41.8,71.8-104,93.3-306.6,107.2l-113.6,7.5L23369.1,11261.8z"/>
	<path class="st0" d="M23291.9,10357c-7.5-23.6-47.2-535-42.9-540.3c9.6-8.6,259.4-32.2,353.8-32.2c107.2-1.1,163,21.4,199.4,80.4
		c22.5,36.5,25.7,54.7,25.7,144.7c0,96.5-2.1,107.2-37.5,176.9c-64.3,125.4-129.7,154.4-390.2,173.7
		C23329.4,10365.6,23294,10364.5,23291.9,10357z"/>
	<path class="st0" d="M26018.2,11287.6c-49.3-4.3-50.4-4.3-45-38.6c2.1-19.3,13.9-154.4,25.7-302.3
		c11.8-146.9,23.6-295.9,27.9-329.1l6.4-61.1l49.3,5.4c228.4,25.7,275.5,44,329.1,126.5c53.6,81.5,72.9,161.9,67.5,278.7
		c-5.4,120.1-39.7,205.8-111.5,275.5l-48.2,47.2l-125.4,1.1C26125.4,11291.8,26046.1,11289.7,26018.2,11287.6z"/>
	<path class="st0" d="M42644.1,4693.1l-74-50.4l77.2-3.2c41.8-2.1,109.4-2.1,149,0l71.8,3.2l-66.5,51.5
		c-36.4,27.9-69.7,50.4-75,49.3C42722.4,4743.5,42684.9,4721,42644.1,4693.1z"/>
</g>
</svg>
