<svg width="121" height="121" viewBox="0 0 121 121" fill="none" xmlns="http://www.w3.org/2000/svg">
<path d="M81.7695 64.0449L98.1471 51.5195C99.3008 50.6372 100.236 49.5009 100.879 48.1988C101.523 46.8967 101.857 45.4638 101.857 44.0114V19.1426L92.2767 38.928C91.8896 39.727 91.2852 40.4008 90.5329 40.8723C89.7806 41.3438 88.9106 41.5938 88.0228 41.5938H81.7695V64.0449Z" fill="#FAFAFA"/>
<path d="M101.857 17.3706C102.328 17.3706 102.778 17.5573 103.111 17.8897C103.443 18.2221 103.63 18.6729 103.63 19.143V44.0118C103.626 45.7375 103.227 47.4394 102.463 48.9867C101.699 50.534 100.59 51.8857 99.2224 52.938L82.8472 65.4633C82.5837 65.664 82.2693 65.7869 81.9395 65.8182C81.6098 65.8495 81.2779 65.7879 80.9813 65.6404C80.6848 65.4928 80.4354 65.2653 80.2615 64.9834C80.0875 64.7015 79.996 64.3766 79.9971 64.0454V41.5942C79.9971 41.1241 80.1838 40.6733 80.5162 40.3409C80.8486 40.0085 81.2994 39.8217 81.7695 39.8217H88.0228C88.5773 39.8198 89.1202 39.6628 89.59 39.3683C90.0599 39.0739 90.438 38.6538 90.6815 38.1556L100.262 18.3702C100.407 18.0704 100.634 17.8176 100.916 17.6408C101.198 17.4639 101.524 17.3703 101.857 17.3706ZM83.542 60.4579L97.0694 50.102C98.0031 49.3839 98.7602 48.4619 99.2828 47.4063C99.8055 46.3508 100.08 45.1897 100.085 44.0118V26.871L93.8719 39.7036C93.3368 40.8002 92.5053 41.7251 91.4715 42.3734C90.4377 43.0216 89.243 43.3674 88.0228 43.3714H83.5325L83.542 60.4579Z" fill="#AB47BC"/>
<path d="M39.2305 64.0449L22.8529 51.5195C21.6992 50.6372 20.7644 49.5009 20.1209 48.1988C19.4775 46.8967 19.1427 45.4638 19.1426 44.0114L19.1426 19.1426L28.7233 38.928C29.1104 39.727 29.7148 40.4008 30.4671 40.8723C31.2194 41.3438 32.0894 41.5938 32.9772 41.5938H39.2305V64.0449Z" fill="#FAFAFA"/>
<path d="M19.1426 17.3706C19.4756 17.3703 19.8019 17.4639 20.0841 17.6408C20.3663 17.8176 20.5928 18.0704 20.7378 18.3702L30.3185 38.1556C30.562 38.6538 30.9401 39.0739 31.41 39.3683C31.8798 39.6628 32.4227 39.8198 32.9772 39.8217H39.2305C39.7005 39.8217 40.1514 40.0085 40.4838 40.3409C40.8162 40.6733 41.0029 41.1241 41.0029 41.5942V64.0454C41.004 64.3766 40.9124 64.7015 40.7385 64.9834C40.5646 65.2653 40.3152 65.4928 40.0187 65.6404C39.7221 65.7879 39.3902 65.8495 39.0605 65.8182C38.7307 65.7869 38.4163 65.664 38.1528 65.4633L21.7776 52.938C20.4108 51.8864 19.3029 50.5359 18.5389 48.9899C17.7749 47.4439 17.3751 45.7434 17.3701 44.0189L17.3701 19.143C17.3701 18.6729 17.5568 18.2221 17.8892 17.8897C18.2216 17.5573 18.6725 17.3706 19.1426 17.3706ZM37.458 43.3667H32.9678C31.7496 43.3613 30.5573 43.0155 29.5254 42.3682C28.4935 41.7209 27.6631 40.7979 27.1281 39.7036L20.915 26.871L20.915 44.0118C20.9201 45.1897 21.1945 46.3508 21.7172 47.4063C22.2398 48.4619 22.9969 49.3839 23.9306 50.102L37.458 60.4579V43.3667Z" fill="#AB47BC"/>
<path d="M39.2305 24.6953H81.7695V92.6396C81.7695 95.4114 81.16 98.1493 79.9842 100.659C78.8084 103.169 77.0951 105.39 74.9656 107.164L60.5 119.227L46.0344 107.174C43.9037 105.399 42.1896 103.176 41.0138 100.664C39.838 98.1527 39.2291 95.413 39.2305 92.6396L39.2305 24.6953Z" fill="#AB47BC"/>
<path d="M39.2304 22.9242H81.7695C82.2396 22.9242 82.6904 23.1109 83.0228 23.4433C83.3552 23.7757 83.542 24.2266 83.542 24.6966V92.641C83.5462 95.6745 82.8812 98.6716 81.5944 101.419C80.3077 104.166 78.4308 106.595 76.0976 108.534L61.6296 120.587C61.3113 120.852 60.9099 120.998 60.4953 120.998C60.0806 120.998 59.6792 120.852 59.3609 120.587L44.8929 108.534C42.5614 106.594 40.6864 104.165 39.4013 101.417C38.1162 98.6704 37.4527 95.6738 37.458 92.641L37.458 24.6966C37.458 24.2266 37.6447 23.7757 37.9771 23.4433C38.3095 23.1109 38.7604 22.9242 39.2304 22.9242ZM79.9971 26.4691H41.0029L41.0029 92.641C40.9999 95.1534 41.5509 97.6356 42.6166 99.9109C43.6824 102.186 45.2366 104.198 47.1687 105.804L60.5 116.921L73.8312 105.814C75.7646 104.207 77.3195 102.193 78.3853 99.9161C79.4511 97.6391 80.0014 95.155 79.9971 92.641V26.4691Z" fill="#AB47BC"/>
<path d="M45.1387 15.2422L75.8613 15.2422L71.1348 24.6953H49.8652L45.1387 15.2422Z" fill="#AB47BC"/>
<path d="M45.1387 13.4707L75.8614 13.4707C76.1634 13.4707 76.4604 13.5479 76.7243 13.695C76.9881 13.842 77.2099 14.054 77.3688 14.3109C77.5277 14.5678 77.6182 14.861 77.632 15.1627C77.6457 15.4644 77.5821 15.7646 77.4471 16.0349L72.7206 25.488C72.5733 25.7825 72.3469 26.0302 72.0669 26.2034C71.7868 26.3766 71.4641 26.4685 71.1348 26.4688H49.8653C49.536 26.4685 49.2133 26.3766 48.9332 26.2034C48.6532 26.0302 48.4269 25.7825 48.2795 25.488L43.553 16.0349C43.4181 15.7646 43.3545 15.4644 43.3682 15.1627C43.3819 14.861 43.4725 14.5678 43.6313 14.3109C43.7902 14.054 44.012 13.842 44.2759 13.695C44.5397 13.5479 44.8367 13.4707 45.1387 13.4707ZM72.9924 17.0156H48.0078L50.9619 22.9238H70.0383L72.9924 17.0156Z" fill="#AB47BC"/>
<path d="M38.0488 24.6953L82.9512 24.6953C84.2047 24.6953 85.407 25.1933 86.2934 26.0797C87.1798 26.9661 87.6777 28.1683 87.6777 29.4219C87.6777 30.6754 87.1798 31.8777 86.2934 32.7641C85.407 33.6505 84.2047 34.1484 82.9512 34.1484H38.0488C36.7953 34.1484 35.593 33.6505 34.7066 32.7641C33.8202 31.8777 33.3223 30.6754 33.3223 29.4219C33.3223 28.1683 33.8202 26.9661 34.7066 26.0797C35.593 25.1933 36.7953 24.6953 38.0488 24.6953Z" fill="#FAFAFA"/>
<path d="M38.0488 22.9238L82.9512 22.9238C84.6748 22.9238 86.3279 23.6085 87.5467 24.8273C88.7655 26.0462 89.4502 27.6992 89.4502 29.4229C89.4502 31.1465 88.7655 32.7996 87.5467 34.0184C86.3279 35.2372 84.6748 35.9219 82.9512 35.9219H38.0488C36.3252 35.9219 34.6721 35.2372 33.4533 34.0184C32.2345 32.7996 31.5498 31.1465 31.5498 29.4229C31.5498 27.6992 32.2345 26.0462 33.4533 24.8273C34.6721 23.6085 36.3252 22.9238 38.0488 22.9238ZM82.9512 32.377C83.7346 32.377 84.486 32.0657 85.04 31.5117C85.594 30.9577 85.9053 30.2063 85.9053 29.4229C85.9053 28.6394 85.594 27.888 85.04 27.334C84.486 26.78 83.7346 26.4688 82.9512 26.4688L38.0488 26.4687C37.2654 26.4687 36.514 26.78 35.96 27.334C35.406 27.888 35.0947 28.6394 35.0947 29.4229C35.0947 30.2063 35.406 30.9577 35.96 31.5117C36.514 32.0657 37.2654 32.377 38.0488 32.377H82.9512ZM69.9531 0C70.4232 0 70.874 0.186737 71.2064 0.519138C71.5388 0.85154 71.7256 1.30238 71.7256 1.77246V8.8623C71.7256 9.33239 71.5388 9.78323 71.2064 10.1156C70.874 10.448 70.4232 10.6348 69.9531 10.6348C69.483 10.6348 69.0322 10.448 68.6998 10.1156C68.3674 9.78323 68.1807 9.33239 68.1807 8.8623V1.77246C68.1807 1.30238 68.3674 0.85154 68.6998 0.519138C69.0322 0.186737 69.483 0 69.9531 0ZM60.5 0C60.9701 0 61.4209 0.186737 61.7533 0.519138C62.0857 0.85154 62.2725 1.30238 62.2725 1.77246V8.8623C62.2725 9.33239 62.0857 9.78323 61.7533 10.1156C61.4209 10.448 60.9701 10.6348 60.5 10.6348C60.0299 10.6348 59.5791 10.448 59.2467 10.1156C58.9143 9.78323 58.7275 9.33239 58.7275 8.8623V1.77246C58.7275 1.30238 58.9143 0.85154 59.2467 0.519138C59.5791 0.186737 60.0299 0 60.5 0ZM51.0469 0C51.517 0 51.9678 0.186737 52.3002 0.519138C52.6326 0.85154 52.8193 1.30238 52.8193 1.77246V8.8623C52.8193 9.33239 52.6326 9.78323 52.3002 10.1156C51.9678 10.448 51.517 10.6348 51.0469 10.6348C50.5768 10.6348 50.126 10.448 49.7936 10.1156C49.4612 9.78323 49.2744 9.33239 49.2744 8.8623V1.77246C49.2744 1.30238 49.4612 0.85154 49.7936 0.519138C50.126 0.186737 50.5768 0 51.0469 0Z" fill="#AB47BC"/>
<path d="M60.5 46.3203C52.6688 46.3203 46.3203 52.6688 46.3203 60.5C46.3203 68.3312 52.6688 74.6797 60.5 74.6797C68.3312 74.6797 74.6797 68.3312 74.6797 60.5C74.6797 52.6688 68.3312 46.3203 60.5 46.3203Z" fill="#FAFAFA"/>
<path d="M60.5 44.5488C63.655 44.5488 66.7392 45.4844 69.3625 47.2372C71.9859 48.9901 74.0305 51.4815 75.2379 54.3963C76.4452 57.3112 76.7611 60.5187 76.1456 63.6131C75.5301 66.7075 74.0108 69.5499 71.7799 71.7808C69.5489 74.0118 66.7065 75.5311 63.6121 76.1466C60.5177 76.7621 57.3102 76.4462 54.3954 75.2388C51.4805 74.0315 48.9891 71.9868 47.2363 69.3635C45.4834 66.7402 44.5478 63.656 44.5478 60.501C44.5528 56.2717 46.2351 52.2172 49.2256 49.2266C52.2162 46.2361 56.2708 44.5538 60.5 44.5488ZM60.5 72.9082C62.9539 72.9082 65.3527 72.1805 67.3931 70.8172C69.4334 69.4539 71.0237 67.5161 71.9628 65.249C72.9019 62.9819 73.1476 60.4872 72.6688 58.0804C72.1901 55.6737 71.0084 53.4629 69.2732 51.7277C67.538 49.9926 65.3273 48.8109 62.9205 48.3321C60.5138 47.8534 58.0191 48.0991 55.752 49.0382C53.4848 49.9773 51.5471 51.5675 50.1838 53.6079C48.8204 55.6482 48.0928 58.0471 48.0928 60.501C48.0965 63.7904 49.4049 66.9441 51.7309 69.2701C54.0569 71.5961 57.2105 72.9044 60.5 72.9082Z" fill="#AB47BC"/>
<path d="M60.5 51.6387C62.2528 51.6387 63.9662 52.1584 65.4236 53.1322C66.881 54.106 68.0169 55.4901 68.6877 57.1095C69.3585 58.7289 69.534 60.5108 69.192 62.2299C68.8501 63.949 68.006 65.5282 66.7666 66.7676C65.5272 68.007 63.9481 68.851 62.2289 69.193C60.5098 69.5349 58.7279 69.3594 57.1085 68.6887C55.4892 68.0179 54.1051 66.882 53.1313 65.4246C52.1575 63.9672 51.6377 62.2538 51.6377 60.501C51.6402 58.1513 52.5747 55.8986 54.2362 54.2371C55.8976 52.5757 58.1503 51.6412 60.5 51.6387ZM60.5 65.8184C61.5517 65.8184 62.5797 65.5065 63.4542 64.9222C64.3286 64.3379 65.0102 63.5075 65.4126 62.5358C65.8151 61.5642 65.9204 60.4951 65.7152 59.4636C65.51 58.4321 65.0036 57.4847 64.26 56.741C63.5163 55.9974 62.5688 55.4909 61.5374 55.2858C60.5059 55.0806 59.4367 55.1859 58.4651 55.5884C57.4935 55.9908 56.663 56.6724 56.0788 57.5468C55.4945 58.4212 55.1826 59.4493 55.1826 60.501C55.1839 61.9108 55.7445 63.2626 56.7414 64.2595C57.7383 65.2565 59.0901 65.8171 60.5 65.8184Z" fill="#AB47BC"/>
<path d="M60.5002 101.856C53.1386 101.867 45.9088 99.9035 39.5639 96.1704C40.3791 100.477 42.6667 104.366 46.0346 107.171L60.5002 119.227L74.9659 107.174C78.3338 104.369 80.6213 100.479 81.4365 96.1728C75.0914 99.9051 67.8616 101.868 60.5002 101.856Z" fill="#FAFAFA"/>
<path d="M81.436 94.3993C81.6968 94.3988 81.9544 94.456 82.1904 94.5667C82.4265 94.6774 82.6352 94.8389 82.8016 95.0396C82.968 95.2404 83.088 95.4754 83.153 95.7279C83.2181 95.9803 83.2265 96.2441 83.1778 96.5002C82.2808 101.21 79.7786 105.463 76.0974 108.534L61.6294 120.587C61.3111 120.852 60.9096 120.998 60.495 120.998C60.0804 120.998 59.6789 120.852 59.3606 120.587L44.8926 108.534C41.2114 105.463 38.7092 101.21 37.8122 96.5002C37.7489 96.1657 37.7833 95.82 37.9113 95.5045C38.0392 95.189 38.2554 94.9171 38.5338 94.7211C38.8122 94.5252 39.1412 94.4136 39.4814 94.3997C39.8215 94.3858 40.1585 94.4701 40.452 94.6427C46.5286 98.2066 53.4457 100.085 60.4903 100.085C67.5349 100.085 74.452 98.2066 80.5285 94.6427C80.8037 94.4815 81.1172 94.3974 81.436 94.3993ZM60.4997 116.921L73.831 105.814C75.8142 104.156 77.3969 102.07 78.4607 99.7143C72.822 102.295 66.6937 103.63 60.4926 103.63C54.2916 103.63 48.1633 102.295 42.5246 99.7143C43.5908 102.07 45.1759 104.155 47.1614 105.812L60.4997 116.921Z" fill="#AB47BC"/>
</svg>
